M48
; DRILL file KiCad 10.0.1-10.0.1~ubuntu24.04.1 date 2026-04-28T12:04:19
; FORMAT={-:-/ absolute / metric / decimal}
; #@! TF.CreationDate,2026-04-28T12:04:19+05:00
; #@! TF.GenerationSoftware,Kicad,Pcbnew,10.0.1-10.0.1~ubuntu24.04.1
; #@! TF.FileFunction,Plated,1,2,PTH
FMAT,2
METRIC
; #@! TA.AperFunction,Plated,PTH,ViaDrill
T1C0.300
; #@! TA.AperFunction,Plated,PTH,ComponentDrill
T2C1.000
; #@! TA.AperFunction,Plated,PTH,ComponentDrill
T3C1.200
%
G90
G05
T1
X16.21Y-16.0
X16.255Y-18.275
X17.78Y-106.68
X17.78Y-111.76
X17.78Y-114.3
X17.8Y-117.02
X17.8Y-119.56
X17.8Y-122.1
X18.0Y-131.82
X18.0Y-136.9
X18.14Y-16.0
X18.185Y-18.275
X20.07Y-16.0
X20.115Y-18.275
X20.32Y-104.14
X20.32Y-106.68
X20.32Y-111.76
X20.32Y-114.3
X20.32Y-116.84
X20.32Y-119.38
X20.32Y-121.92
X20.32Y-132.08
X20.32Y-137.16
X20.32Y-142.24
X20.32Y-144.78
X20.32Y-147.32
X20.32Y-149.86
X22.0Y-16.0
X22.0Y-49.0
X22.0Y-50.0
X22.0Y-51.0
X22.045Y-18.275
X22.12Y-23.83
X22.12Y-28.88
X22.12Y-58.85
X22.12Y-63.9
X22.86Y-101.6
X22.86Y-104.14
X22.86Y-106.68
X22.86Y-111.76
X22.86Y-152.4
X25.4Y-152.4
X25.4Y-154.94
X25.663Y-116.23
X27.94Y-137.16
X27.94Y-152.4
X27.955Y-71.3
X28.0Y-49.0
X28.0Y-50.0
X28.0Y-51.0
X28.0Y-52.0
X28.0Y-53.0
X28.0Y-54.0
X28.0Y-73.575
X29.0Y-49.0
X29.0Y-50.0
X29.0Y-51.0
X29.0Y-52.0
X29.0Y-53.0
X29.0Y-54.0
X29.5Y-115.5
X29.5Y-116.5
X29.885Y-71.3
X29.93Y-73.575
X30.0Y-49.0
X30.0Y-50.0
X30.0Y-51.0
X30.0Y-52.0
X30.0Y-53.0
X30.0Y-54.0
X30.48Y-101.6
X30.48Y-104.14
X30.48Y-106.68
X30.48Y-137.16
X30.48Y-139.7
X30.48Y-142.24
X30.48Y-144.78
X30.48Y-147.32
X30.48Y-154.94
X30.48Y-157.48
X30.5Y-121.0
X31.0Y-49.0
X31.0Y-50.0
X31.0Y-51.0
X31.0Y-52.0
X31.0Y-53.0
X31.0Y-122.0
X31.61Y-116.24
X31.815Y-71.3
X31.86Y-73.575
X32.0Y-50.0
X32.0Y-51.0
X32.0Y-52.0
X32.115Y-63.935
X33.02Y-149.86
X33.02Y-157.48
X33.5Y-121.0
X33.5Y-122.0
X33.745Y-71.3
X33.79Y-73.575
X35.5Y-116.0
X35.5Y-117.0
X35.56Y-101.6
X35.56Y-104.14
X35.56Y-106.68
X35.56Y-149.86
X35.56Y-152.4
X35.675Y-71.3
X35.72Y-73.575
X36.5Y-121.0
X36.5Y-122.0
X37.605Y-71.3
X37.637Y-116.2
X37.65Y-73.575
X38.1Y-152.4
X38.1Y-154.94
X39.1Y-137.16
X39.1Y-139.7
X39.1Y-142.24
X39.1Y-144.78
X39.1Y-147.32
X39.535Y-71.3
X39.58Y-73.575
X39.9Y-28.88
X40.5Y-122.0
X40.64Y-101.6
X40.64Y-149.86
X40.64Y-154.94
X40.64Y-157.48
X41.0Y-121.0
X41.465Y-71.3
X41.5Y-115.5
X41.5Y-117.0
X41.5Y-122.0
X41.51Y-73.575
X42.0Y-121.0
X42.44Y-23.83
X42.44Y-28.88
X42.955Y-71.3
X43.0Y-73.575
X43.18Y-104.14
X43.18Y-106.68
X43.18Y-149.86
X43.18Y-152.4
X43.665Y-116.2
X44.885Y-71.3
X44.93Y-23.22
X44.93Y-73.575
X45.0Y-121.5
X45.5Y-121.0
X45.72Y-149.86
X45.72Y-152.4
X45.72Y-154.94
X46.0Y-120.5
X46.77Y-55.25
X46.815Y-71.3
X46.86Y-73.575
X47.5Y-116.0
X47.535Y-22.755
X48.0Y-131.0
X48.26Y-99.06
X48.26Y-101.6
X48.26Y-104.14
X48.26Y-139.7
X48.26Y-144.78
X48.26Y-152.4
X48.26Y-154.94
X48.26Y-157.48
X48.5Y-121.0
X48.5Y-122.5
X48.745Y-71.3
X48.79Y-73.575
X49.0Y-131.0
X49.26Y-137.16
X49.26Y-142.24
X49.26Y-147.32
X49.5Y-121.0
X49.5Y-122.5
X49.802Y-116.23
X50.0Y-131.0
X50.13Y-63.72
X50.235Y-29.455
X50.5Y-121.0
X50.5Y-122.5
X50.675Y-71.3
X50.72Y-73.575
X50.8Y-149.86
X51.0Y-131.0
X51.18Y-66.43
X51.4Y-61.34
X52.605Y-71.3
X52.65Y-73.575
X53.34Y-99.06
X53.34Y-101.6
X53.34Y-104.14
X53.34Y-149.86
X53.34Y-152.4
X53.5Y-116.5
X53.5Y-117.5
X53.5Y-121.0
X53.5Y-122.5
X54.5Y-121.0
X54.5Y-122.5
X54.535Y-71.3
X54.58Y-73.575
X55.255Y-29.145
X55.806Y-116.18
X56.465Y-71.3
X56.51Y-73.575
X57.685Y-23.585
X58.4Y-55.02
X59.0Y-147.0
X59.52Y-109.36
X60.04Y-59.33
X60.097Y-135.53
X60.27Y-64.13
X60.295Y-28.995
X60.96Y-99.06
X61.0Y-147.0
X61.0Y-149.0
X61.646Y-115.95
X61.646Y-117.832
X61.65Y-142.11
X61.68Y-141.26
X62.19Y-143.02
X62.8Y-59.83
X63.0Y-147.0
X63.0Y-149.0
X63.0Y-151.0
X63.0Y-153.0
X63.0Y-155.0
X63.283Y-103.858
X63.433Y-112.35
X64.451Y-53.451
X64.5Y-56.0
X64.5Y-107.6
X64.7Y-109.4
X65.18Y-58.31
X65.44Y-63.8
X66.04Y-99.06
X66.178Y-140.84
X66.178Y-143.12
X67.0Y-41.0
X67.086Y-115.95
X67.086Y-117.832
X67.495Y-103.67
X67.58Y-136.23
X67.6Y-135.31
X67.63Y-58.69
X68.0Y-41.0
X68.355Y-71.3
X68.4Y-73.575
X68.886Y-112.35
X69.0Y-41.0
X69.316Y-108.21
X70.0Y-41.0
X70.2Y-107.7
X70.285Y-71.3
X70.33Y-73.575
X70.38Y-23.83
X71.12Y-99.06
X72.005Y-103.72
X72.215Y-71.3
X72.26Y-73.575
X72.266Y-115.95
X72.266Y-117.82
X73.02Y-58.59
X73.38Y-136.91
X73.661Y-108.55
X74.0Y-138.0
X74.0Y-140.0
X74.0Y-142.0
X74.0Y-144.0
X74.0Y-146.0
X74.0Y-148.0
X74.0Y-150.0
X74.0Y-152.0
X74.0Y-154.0
X74.0Y-156.0
X74.145Y-71.3
X74.19Y-73.575
X74.199Y-112.3
X74.899Y-135.953
X75.46Y-23.83
X75.46Y-63.9
X75.525Y-59.725
X75.705Y-103.782
X76.0Y-48.0
X76.0Y-49.0
X76.0Y-50.0
X76.0Y-51.0
X76.0Y-52.0
X76.0Y-53.0
X76.0Y-54.0
X76.0Y-146.0
X76.0Y-148.0
X76.0Y-150.0
X76.0Y-152.0
X76.0Y-154.0
X76.0Y-156.0
X76.075Y-71.3
X76.12Y-73.575
X77.0Y-48.0
X77.0Y-49.0
X77.0Y-50.0
X77.0Y-51.0
X77.0Y-52.0
X77.0Y-53.0
X77.0Y-54.0
X77.156Y-116.07
X77.276Y-117.765
X77.53Y-142.47
X78.005Y-71.3
X78.05Y-73.575
X78.649Y-108.574
X79.05Y-142.92
X79.211Y-112.3
X79.4Y-119.44
X79.68Y-136.33
X79.7Y-135.36
X79.905Y-103.682
X79.935Y-71.3
X79.98Y-73.575
X81.569Y-140.94
X81.569Y-142.91
X81.865Y-71.3
X81.91Y-73.575
X82.1Y-116.006
X82.336Y-117.67
X83.0Y-135.3
X83.03Y-136.25
X83.355Y-71.3
X83.4Y-73.575
X83.82Y-169.0
X83.829Y-103.756
X84.186Y-112.25
X85.076Y-107.23
X85.155Y-27.775
X85.2Y-30.05
X85.285Y-71.3
X85.33Y-73.575
X85.847Y-107.676
X86.36Y-169.0
X87.0Y-136.0
X87.0Y-137.0
X87.085Y-27.775
X87.13Y-30.05
X87.215Y-71.3
X87.26Y-73.575
X87.592Y-103.545
X87.626Y-115.867
X87.626Y-117.692
X88.0Y-136.0
X88.0Y-137.0
X88.9Y-169.0
X89.0Y-138.0
X89.0Y-140.0
X89.0Y-142.0
X89.0Y-144.0
X89.0Y-146.0
X89.0Y-148.0
X89.0Y-150.0
X89.0Y-152.0
X89.0Y-154.0
X89.0Y-156.0
X89.015Y-27.775
X89.06Y-30.05
X89.145Y-71.3
X89.19Y-73.575
X89.4Y-107.23
X89.511Y-112.3
X89.695Y-135.953
X90.9Y-107.7
X90.945Y-27.775
X90.99Y-30.05
X91.0Y-148.0
X91.0Y-150.0
X91.0Y-152.0
X91.0Y-154.0
X91.0Y-156.0
X91.075Y-71.3
X91.12Y-73.575
X91.44Y-169.0
X92.405Y-103.445
X92.46Y-141.15
X92.54Y-142.07
X92.54Y-143.12
X92.806Y-116.15
X92.875Y-27.775
X92.916Y-117.802
X92.92Y-30.05
X92.925Y-124.38
X92.925Y-129.5
X93.005Y-71.3
X93.05Y-73.575
X94.249Y-108.6
X94.42Y-135.59
X94.44Y-136.51
X94.786Y-112.35
X94.805Y-27.775
X94.85Y-30.05
X95.0Y-98.0
X95.36Y-135.59
X95.36Y-136.48
X95.465Y-124.38
X95.465Y-129.5
X96.735Y-27.775
X96.78Y-30.05
X96.961Y-141.1
X96.961Y-143.17
X97.581Y-115.968
X97.581Y-117.792
X98.0Y-100.0
X98.0Y-106.0
X98.005Y-124.38
X98.005Y-129.5
X98.5Y-136.53
X98.665Y-27.775
X98.71Y-30.05
X99.486Y-112.45
X100.0Y-103.0
X100.0Y-119.0
X101.0Y-106.0
X101.0Y-119.0
X101.6Y-168.85
X102.0Y-119.0
X102.0Y-148.0
X102.0Y-150.0
X102.0Y-152.0
X102.0Y-154.0
X102.0Y-156.0
X103.0Y-105.0
X104.0Y-148.0
X104.0Y-150.0
X104.0Y-152.0
X104.0Y-154.0
X104.0Y-156.0
X104.14Y-168.85
X105.0Y-110.0
X105.149Y-135.953
X106.68Y-169.0
X106.985Y-56.8
X107.0Y-110.0
X107.89Y-131.85
X108.25Y-133.88
X108.915Y-56.8
X108.965Y-54.425
X109.453Y-142.95
X110.0Y-110.0
X110.81Y-51.975
X110.845Y-56.8
X110.895Y-54.425
X111.12Y-136.53
X112.0Y-110.0
X112.578Y-141.2
X112.578Y-143.17
X112.695Y-49.7
X112.74Y-51.975
X112.775Y-56.8
X112.825Y-54.425
X113.15Y-144.8
X114.3Y-169.0
X114.625Y-49.7
X114.67Y-51.975
X114.705Y-56.8
X114.755Y-54.425
X115.0Y-110.0
X116.555Y-49.7
X116.6Y-51.975
X116.635Y-56.8
X116.685Y-54.425
X116.84Y-169.0
X117.0Y-148.0
X117.0Y-150.0
X117.0Y-152.0
X117.0Y-154.0
X117.0Y-156.0
X118.445Y-114.725
X118.485Y-49.7
X118.49Y-117.0
X118.53Y-51.975
X118.565Y-56.8
X118.615Y-54.425
X119.0Y-110.0
X119.0Y-148.0
X119.0Y-150.0
X119.0Y-152.0
X119.0Y-154.0
X119.0Y-156.0
X119.38Y-169.0
X120.375Y-114.725
X120.415Y-49.7
X120.42Y-117.0
X120.46Y-51.975
X120.495Y-56.8
X120.545Y-54.425
X121.0Y-148.0
X121.0Y-150.0
X121.0Y-152.0
X121.0Y-154.0
X121.0Y-156.0
X121.92Y-160.02
X121.92Y-162.56
X121.92Y-169.0
X122.0Y-110.0
X122.305Y-114.725
X122.345Y-49.7
X122.35Y-117.0
X122.39Y-51.975
X122.425Y-56.8
X122.475Y-54.425
X123.0Y-148.0
X123.0Y-150.0
X123.0Y-152.0
X123.0Y-154.0
X123.0Y-156.0
X124.235Y-114.725
X124.275Y-49.7
X124.28Y-117.0
X124.32Y-51.975
X124.355Y-56.8
X124.405Y-54.425
X124.46Y-160.02
X124.46Y-162.56
X124.46Y-169.0
X126.165Y-114.725
X126.205Y-49.7
X126.21Y-117.0
X126.25Y-51.975
X126.285Y-56.8
X126.335Y-54.425
X127.0Y-152.4
X127.0Y-154.94
X127.0Y-157.48
X127.0Y-160.02
X127.0Y-162.56
X127.0Y-169.0
X128.095Y-114.725
X128.135Y-49.7
X128.14Y-117.0
X128.18Y-51.975
X128.215Y-56.8
X128.265Y-54.425
X129.54Y-108.275
X129.54Y-152.4
X129.54Y-154.94
X129.54Y-157.48
X129.54Y-160.02
X129.54Y-162.56
X129.54Y-169.0
X130.025Y-114.725
X130.07Y-117.0
X131.35Y-40.5
X131.955Y-114.725
X132.0Y-51.975
X132.0Y-52.9
X132.05Y-53.75
X132.08Y-108.275
X132.08Y-157.48
X132.08Y-160.02
X132.08Y-162.56
X132.08Y-169.0
X134.62Y-108.275
X134.62Y-157.48
X134.62Y-160.02
X134.62Y-162.56
X134.62Y-169.0
X137.16Y-108.275
X137.16Y-160.02
X137.16Y-162.56
X137.16Y-168.85
X139.7Y-157.48
X139.7Y-160.02
X139.7Y-162.56
X139.7Y-168.85
X139.9Y-132.3
X139.9Y-133.5
X140.1Y-119.4
X140.1Y-120.3
X140.1Y-121.4
X140.1Y-122.2
X140.5Y-136.2
X141.21Y-21.0
X141.255Y-23.275
X142.24Y-157.48
X142.24Y-160.02
X142.24Y-162.56
X143.14Y-21.0
X143.185Y-23.275
X143.21Y-101.725
X143.255Y-104.0
X145.07Y-21.0
X145.115Y-23.275
X145.14Y-101.725
X145.185Y-104.0
X146.105Y-59.125
X146.15Y-61.4
X147.0Y-21.0
X147.045Y-23.275
X147.07Y-101.725
X147.115Y-104.0
X148.035Y-59.125
X148.08Y-61.4
X148.99Y-143.417
X148.99Y-144.517
X148.99Y-145.718
X148.99Y-147.017
X149.0Y-101.725
X149.045Y-104.0
X149.965Y-59.125
X150.01Y-61.4
X151.165Y-101.725
X151.21Y-104.0
X151.58Y-140.44
X151.6Y-141.28
X151.64Y-141.96
X151.895Y-59.125
X151.94Y-61.4
X152.99Y-141.317
X152.99Y-142.118
X153.095Y-101.725
X153.14Y-104.0
X153.305Y-131.398
X153.305Y-132.417
X153.79Y-141.317
X153.79Y-142.118
X153.825Y-59.125
X153.87Y-61.4
X154.49Y-141.317
X154.49Y-142.118
X155.025Y-101.725
X155.07Y-104.0
X155.21Y-15.0
X155.255Y-17.275
X155.755Y-59.125
X155.8Y-61.4
X156.955Y-101.725
X157.0Y-104.0
X157.14Y-15.0
X157.185Y-17.275
X157.685Y-59.125
X157.73Y-61.4
X158.78Y-126.31
X159.07Y-15.0
X159.115Y-17.275
X159.615Y-59.125
X159.66Y-61.4
X161.0Y-15.0
X161.0Y-132.0
X161.0Y-133.0
X161.0Y-134.0
X161.0Y-135.0
X161.0Y-136.0
X161.0Y-137.0
X161.045Y-17.275
T2
X19.565Y-43.235
X19.565Y-45.775
X19.665Y-125.185
X19.665Y-127.725
X22.105Y-43.235
X22.105Y-45.775
X22.205Y-125.185
X22.205Y-127.725
X24.645Y-43.235
X24.645Y-45.775
X24.745Y-125.185
X24.745Y-127.725
X27.185Y-43.235
X27.185Y-45.775
X27.285Y-125.185
X27.285Y-127.725
X29.725Y-43.235
X29.725Y-45.775
X29.825Y-125.185
X29.825Y-127.725
X32.265Y-43.235
X32.265Y-45.775
X32.365Y-125.185
X32.365Y-127.725
X34.805Y-43.235
X34.805Y-45.775
X34.905Y-125.185
X34.905Y-127.725
X37.345Y-43.235
X37.345Y-45.775
X37.445Y-125.185
X37.445Y-127.725
X39.885Y-43.235
X39.885Y-45.775
X39.985Y-125.185
X39.985Y-127.725
X42.425Y-43.235
X42.425Y-45.775
X42.525Y-125.185
X42.525Y-127.725
X44.965Y-43.235
X44.965Y-45.775
X45.065Y-125.185
X45.065Y-127.725
X47.505Y-43.235
X47.505Y-45.775
X47.605Y-125.185
X47.605Y-127.725
X50.045Y-43.235
X50.045Y-45.775
X50.145Y-125.185
X50.145Y-127.725
X52.585Y-43.235
X52.585Y-45.775
X52.685Y-125.185
X52.685Y-127.725
X55.125Y-43.235
X55.125Y-45.775
X55.225Y-125.185
X55.225Y-127.725
X57.665Y-43.235
X57.665Y-45.775
X57.765Y-125.185
X57.765Y-127.725
X60.205Y-43.235
X60.205Y-45.775
X60.305Y-125.185
X60.305Y-127.725
X62.745Y-43.235
X62.745Y-45.775
X62.845Y-125.185
X62.845Y-127.725
X65.285Y-43.235
X65.285Y-45.775
X65.385Y-125.185
X65.385Y-127.725
X67.825Y-43.235
X67.825Y-45.775
X67.925Y-125.185
X67.925Y-127.725
X70.365Y-43.235
X70.365Y-45.775
X70.465Y-125.185
X70.465Y-127.725
X72.905Y-43.235
X72.905Y-45.775
X73.005Y-125.185
X73.005Y-127.725
X75.445Y-43.235
X75.445Y-45.775
X75.545Y-125.185
X75.545Y-127.725
X77.985Y-43.235
X77.985Y-45.775
X78.085Y-125.185
X78.085Y-127.725
X80.525Y-43.235
X80.525Y-45.775
X80.625Y-125.185
X80.625Y-127.725
X83.065Y-43.235
X83.065Y-45.775
X83.165Y-125.185
X83.165Y-127.725
X85.605Y-43.235
X85.605Y-45.775
X85.705Y-125.185
X85.705Y-127.725
X88.145Y-43.235
X88.145Y-45.775
X88.245Y-125.185
X88.245Y-127.725
X108.155Y-102.83
X108.155Y-105.37
X110.695Y-102.83
X110.695Y-105.37
X113.235Y-102.83
X113.235Y-105.37
X115.775Y-102.83
X115.775Y-105.37
X118.315Y-102.83
X118.315Y-105.37
X120.855Y-102.83
X120.855Y-105.37
X121.16Y-139.585
X121.16Y-142.125
X121.903Y-27.812
X123.395Y-102.83
X123.395Y-105.37
X123.7Y-139.585
X123.7Y-142.125
X124.443Y-27.812
X125.935Y-102.83
X125.935Y-105.37
X126.24Y-139.585
X126.24Y-142.125
X126.983Y-27.812
X128.78Y-139.585
X128.78Y-142.125
X129.523Y-27.812
X131.32Y-139.585
X131.32Y-142.125
X132.063Y-27.812
X133.86Y-139.585
X133.86Y-142.125
X134.603Y-27.812
X135.4Y-33.05
X135.4Y-35.59
X135.4Y-38.13
X135.4Y-40.67
X135.4Y-43.21
X135.4Y-45.75
X135.4Y-48.29
X135.55Y-114.785
X135.55Y-117.325
X135.55Y-119.865
X135.55Y-122.405
X135.55Y-124.945
X135.55Y-127.485
X135.55Y-130.025
X136.4Y-139.585
X136.4Y-142.125
X137.143Y-27.812
X137.94Y-33.05
X137.94Y-35.59
X137.94Y-38.13
X137.94Y-40.67
X137.94Y-43.21
X137.94Y-45.75
X137.94Y-48.29
X138.09Y-114.785
X138.09Y-117.325
X138.09Y-119.865
X138.09Y-122.405
X138.09Y-124.945
X138.09Y-127.485
X138.09Y-130.025
X143.883Y-29.791
X143.883Y-32.331
X143.896Y-36.94
X143.896Y-39.48
X144.479Y-111.11
X144.479Y-113.65
X144.479Y-118.25
X144.479Y-120.79
X146.423Y-29.791
X146.423Y-32.331
X146.436Y-36.94
X146.436Y-39.48
X147.019Y-111.11
X147.019Y-113.65
X147.019Y-118.25
X147.019Y-120.79
X148.963Y-29.791
X148.963Y-32.331
X148.976Y-36.94
X148.976Y-39.48
X149.559Y-111.11
X149.559Y-113.65
X149.559Y-118.25
X149.559Y-120.79
X151.503Y-29.791
X151.503Y-32.331
X151.516Y-36.94
X151.516Y-39.48
X152.099Y-111.11
X152.099Y-113.65
X152.099Y-118.25
X152.099Y-120.79
X154.043Y-29.791
X154.043Y-32.331
X154.056Y-36.94
X154.056Y-39.48
X154.639Y-111.11
X154.639Y-113.65
X154.639Y-118.25
X154.639Y-120.79
X156.583Y-29.791
X156.583Y-32.331
X156.596Y-36.94
X156.596Y-39.48
X157.179Y-111.11
X157.179Y-113.65
X157.179Y-118.25
X157.179Y-120.79
X159.123Y-29.791
X159.123Y-32.331
X159.136Y-36.94
X159.136Y-39.48
X159.719Y-111.11
X159.719Y-113.65
X159.719Y-118.25
X159.719Y-120.79
T3
X28.881Y-161.022
X29.445Y-94.3
X32.381Y-161.022
X32.945Y-94.3
X35.881Y-161.022
X36.445Y-94.3
X39.381Y-161.022
X39.945Y-94.3
X42.881Y-161.022
X43.445Y-94.3
X46.381Y-161.022
X46.945Y-94.3
X49.881Y-161.022
X50.445Y-94.3
X53.381Y-161.022
X53.945Y-94.3
X56.881Y-161.022
X57.445Y-94.3
X60.381Y-161.022
X60.945Y-94.3
X63.881Y-161.022
X64.445Y-94.3
X67.381Y-161.022
X67.945Y-94.3
X70.881Y-161.022
X71.445Y-94.3
X74.381Y-161.022
X74.945Y-94.3
X77.881Y-161.022
X78.445Y-94.3
X81.381Y-161.022
X81.945Y-94.3
X87.441Y-161.022
X87.955Y-94.3
X90.941Y-161.022
X91.455Y-94.3
X94.441Y-161.022
X94.955Y-94.3
X97.941Y-161.022
X98.455Y-94.3
X101.441Y-161.022
X101.955Y-94.3
X104.941Y-161.022
X105.455Y-94.3
X108.441Y-161.022
X108.955Y-94.3
X111.941Y-161.022
X112.455Y-94.3
X115.955Y-94.3
X117.033Y-69.832
X119.455Y-94.3
X120.843Y-69.832
X122.955Y-94.3
X124.653Y-69.832
X126.455Y-94.3
X128.463Y-69.832
X129.955Y-94.3
X132.273Y-69.832
X133.455Y-94.3
X136.083Y-69.832
X136.955Y-94.3
X139.893Y-69.832
X140.455Y-94.3
X143.703Y-69.832
X146.215Y-160.797
X146.46Y-94.262
X147.513Y-69.842
X149.715Y-160.797
X149.96Y-94.262
X151.323Y-69.842
M30
