%TF.GenerationSoftware,KiCad,Pcbnew,10.0.1-10.0.1~ubuntu24.04.1*%
%TF.CreationDate,2026-04-28T12:04:17+05:00*%
%TF.ProjectId,MY_POWERFULL_PLC_PCB,4d595f50-4f57-4455-9246-554c4c5f504c,rev?*%
%TF.SameCoordinates,Original*%
%TF.FileFunction,Paste,Bot*%
%TF.FilePolarity,Positive*%
%FSLAX46Y46*%
G04 Gerber Fmt 4.6, Leading zero omitted, Abs format (unit mm)*
G04 Created by KiCad (PCBNEW 10.0.1-10.0.1~ubuntu24.04.1) date 2026-04-28 12:04:17*
%MOMM*%
%LPD*%
G01*
G04 APERTURE LIST*
G04 Aperture macros list*
%AMRoundRect*
0 Rectangle with rounded corners*
0 $1 Rounding radius*
0 $2 $3 $4 $5 $6 $7 $8 $9 X,Y pos of 4 corners*
0 Add a 4 corners polygon primitive as box body*
4,1,4,$2,$3,$4,$5,$6,$7,$8,$9,$2,$3,0*
0 Add four circle primitives for the rounded corners*
1,1,$1+$1,$2,$3*
1,1,$1+$1,$4,$5*
1,1,$1+$1,$6,$7*
1,1,$1+$1,$8,$9*
0 Add four rect primitives between the rounded corners*
20,1,$1+$1,$2,$3,$4,$5,0*
20,1,$1+$1,$4,$5,$6,$7,0*
20,1,$1+$1,$6,$7,$8,$9,0*
20,1,$1+$1,$8,$9,$2,$3,0*%
G04 Aperture macros list end*
%ADD10RoundRect,0.250000X-0.650000X1.000000X-0.650000X-1.000000X0.650000X-1.000000X0.650000X1.000000X0*%
%ADD11RoundRect,0.250000X-0.312500X-0.625000X0.312500X-0.625000X0.312500X0.625000X-0.312500X0.625000X0*%
%ADD12RoundRect,0.250000X0.312500X0.625000X-0.312500X0.625000X-0.312500X-0.625000X0.312500X-0.625000X0*%
%ADD13RoundRect,0.250000X0.625000X-0.312500X0.625000X0.312500X-0.625000X0.312500X-0.625000X-0.312500X0*%
%ADD14RoundRect,0.250000X-0.250000X-0.475000X0.250000X-0.475000X0.250000X0.475000X-0.250000X0.475000X0*%
%ADD15R,1.003300X0.558800*%
%ADD16RoundRect,0.250000X0.262500X0.450000X-0.262500X0.450000X-0.262500X-0.450000X0.262500X-0.450000X0*%
%ADD17RoundRect,0.250000X0.650000X-1.000000X0.650000X1.000000X-0.650000X1.000000X-0.650000X-1.000000X0*%
%ADD18RoundRect,0.250000X-0.475000X0.250000X-0.475000X-0.250000X0.475000X-0.250000X0.475000X0.250000X0*%
%ADD19RoundRect,0.250000X0.450000X-0.262500X0.450000X0.262500X-0.450000X0.262500X-0.450000X-0.262500X0*%
%ADD20RoundRect,0.150000X0.512500X0.150000X-0.512500X0.150000X-0.512500X-0.150000X0.512500X-0.150000X0*%
%ADD21RoundRect,0.250000X-0.262500X-0.450000X0.262500X-0.450000X0.262500X0.450000X-0.262500X0.450000X0*%
%ADD22RoundRect,0.250000X-0.312500X-1.450000X0.312500X-1.450000X0.312500X1.450000X-0.312500X1.450000X0*%
%ADD23RoundRect,0.150000X-0.512500X-0.150000X0.512500X-0.150000X0.512500X0.150000X-0.512500X0.150000X0*%
%ADD24RoundRect,0.250000X-0.325000X-1.100000X0.325000X-1.100000X0.325000X1.100000X-0.325000X1.100000X0*%
%ADD25RoundRect,0.250000X-1.125000X1.275000X-1.125000X-1.275000X1.125000X-1.275000X1.125000X1.275000X0*%
%ADD26RoundRect,0.250000X-0.350000X0.850000X-0.350000X-0.850000X0.350000X-0.850000X0.350000X0.850000X0*%
%ADD27RoundRect,0.250000X0.250000X0.475000X-0.250000X0.475000X-0.250000X-0.475000X0.250000X-0.475000X0*%
%ADD28RoundRect,0.150000X0.150000X-0.587500X0.150000X0.587500X-0.150000X0.587500X-0.150000X-0.587500X0*%
%ADD29RoundRect,0.225000X-0.225000X-0.375000X0.225000X-0.375000X0.225000X0.375000X-0.225000X0.375000X0*%
%ADD30RoundRect,0.250000X0.900000X-1.000000X0.900000X1.000000X-0.900000X1.000000X-0.900000X-1.000000X0*%
G04 APERTURE END LIST*
D10*
%TO.C,D46*%
X111976215Y-167600000D03*
X111976215Y-163600000D03*
%TD*%
D11*
%TO.C,R78*%
X60127881Y-140650000D03*
X63052881Y-140650000D03*
%TD*%
D12*
%TO.C,R80*%
X63052881Y-142950000D03*
X60127881Y-142950000D03*
%TD*%
D11*
%TO.C,R79*%
X60127881Y-138350000D03*
X63052881Y-138350000D03*
%TD*%
D12*
%TO.C,R88*%
X75519467Y-142950000D03*
X78444467Y-142950000D03*
%TD*%
D11*
%TO.C,R87*%
X78444467Y-138350000D03*
X75519467Y-138350000D03*
%TD*%
%TO.C,R86*%
X78444467Y-140650000D03*
X75519467Y-140650000D03*
%TD*%
D13*
%TO.C,R40*%
X72135556Y-103782500D03*
X72135556Y-100857500D03*
%TD*%
D14*
%TO.C,C18*%
X92348825Y-108600000D03*
X94248825Y-108600000D03*
%TD*%
%TO.C,C24*%
X76773825Y-108550000D03*
X78673825Y-108550000D03*
%TD*%
D15*
%TO.C,U29*%
X152033996Y-137637502D03*
X152033996Y-136687501D03*
X152033996Y-135737500D03*
X154789896Y-135737500D03*
X154789896Y-136687501D03*
X154789896Y-137637502D03*
%TD*%
D14*
%TO.C,C34*%
X25069182Y-112530000D03*
X26969182Y-112530000D03*
%TD*%
D12*
%TO.C,R93*%
X99823553Y-135570000D03*
X96898553Y-135570000D03*
%TD*%
D14*
%TO.C,C14*%
X31096325Y-112530000D03*
X32996325Y-112530000D03*
%TD*%
D16*
%TO.C,R22*%
X94711325Y-114100000D03*
X92886325Y-114100000D03*
%TD*%
D12*
%TO.C,R68*%
X55367861Y-136620465D03*
X52442861Y-136620465D03*
%TD*%
D17*
%TO.C,D17*%
X71744896Y-91500000D03*
X71744896Y-87500000D03*
%TD*%
D13*
%TO.C,R43*%
X65143248Y-103782500D03*
X65143248Y-100857500D03*
%TD*%
D14*
%TO.C,C41*%
X66177881Y-143170000D03*
X68077881Y-143170000D03*
%TD*%
D18*
%TO.C,C33*%
X27069182Y-108880000D03*
X27069182Y-110780000D03*
%TD*%
D16*
%TO.C,R34*%
X79136325Y-114050000D03*
X77311325Y-114050000D03*
%TD*%
D13*
%TO.C,R28*%
X86120172Y-103782500D03*
X86120172Y-100857500D03*
%TD*%
D14*
%TO.C,C44*%
X81569467Y-141150000D03*
X83469467Y-141150000D03*
%TD*%
D19*
%TO.C,R29*%
X87626325Y-117692500D03*
X87626325Y-115867500D03*
%TD*%
D17*
%TO.C,D7*%
X43295675Y-91500000D03*
X43295675Y-87500000D03*
%TD*%
D20*
%TO.C,U4*%
X51452753Y-115280000D03*
X51452753Y-116230000D03*
X51452753Y-117180000D03*
X49177753Y-117180000D03*
X49177753Y-115280000D03*
%TD*%
D14*
%TO.C,C49*%
X96961053Y-143170000D03*
X98861053Y-143170000D03*
%TD*%
D18*
%TO.C,C9*%
X43150610Y-108880000D03*
X43150610Y-110780000D03*
%TD*%
D13*
%TO.C,R47*%
X62812479Y-103782500D03*
X62812479Y-100857500D03*
%TD*%
D12*
%TO.C,R56*%
X25305361Y-136620465D03*
X22380361Y-136620465D03*
%TD*%
D21*
%TO.C,RFBB1*%
X157014896Y-131417500D03*
X158839896Y-131417500D03*
%TD*%
D11*
%TO.C,R67*%
X52379896Y-134280000D03*
X55304896Y-134280000D03*
%TD*%
D16*
%TO.C,R26*%
X89436325Y-114050000D03*
X87611325Y-114050000D03*
%TD*%
D13*
%TO.C,R19*%
X93066325Y-103845000D03*
X93066325Y-100920000D03*
%TD*%
D16*
%TO.C,R46*%
X63357754Y-114100000D03*
X61532754Y-114100000D03*
%TD*%
D13*
%TO.C,R32*%
X81458633Y-103782500D03*
X81458633Y-100857500D03*
%TD*%
D14*
%TO.C,C26*%
X71761325Y-108550000D03*
X73661325Y-108550000D03*
%TD*%
D17*
%TO.C,D5*%
X46862341Y-91500000D03*
X46862341Y-87500000D03*
%TD*%
D10*
%TO.C,D45*%
X94285678Y-167600000D03*
X94285678Y-163600000D03*
%TD*%
D14*
%TO.C,C2*%
X55204896Y-112530000D03*
X57104896Y-112530000D03*
%TD*%
%TO.C,C22*%
X81748825Y-108500000D03*
X83648825Y-108500000D03*
%TD*%
D16*
%TO.C,R38*%
X74123825Y-114050000D03*
X72298825Y-114050000D03*
%TD*%
D20*
%TO.C,U31*%
X27344182Y-115280000D03*
X27344182Y-116230000D03*
X27344182Y-117180000D03*
X25069182Y-117180000D03*
X25069182Y-115280000D03*
%TD*%
D21*
%TO.C,RFBT1_TRIM1*%
X153304896Y-133807500D03*
X155129896Y-133807500D03*
%TD*%
D12*
%TO.C,R85*%
X84431967Y-135570000D03*
X81506967Y-135570000D03*
%TD*%
D20*
%TO.C,U21*%
X79211325Y-110400000D03*
X79211325Y-111350000D03*
X79211325Y-112300000D03*
X76936325Y-112300000D03*
X76936325Y-110400000D03*
%TD*%
%TO.C,U27*%
X63432754Y-110450000D03*
X63432754Y-111400000D03*
X63432754Y-112350000D03*
X61157754Y-112350000D03*
X61157754Y-110450000D03*
%TD*%
D10*
%TO.C,D40*%
X81400000Y-163900000D03*
X81400000Y-167900000D03*
%TD*%
D22*
%TO.C,F1*%
X145152396Y-152217500D03*
X149427396Y-152217500D03*
%TD*%
D13*
%TO.C,R39*%
X69804787Y-103782500D03*
X69804787Y-100857500D03*
%TD*%
D11*
%TO.C,R59*%
X32451563Y-134280000D03*
X35376563Y-134280000D03*
%TD*%
D18*
%TO.C,C3*%
X55204896Y-108880000D03*
X55204896Y-110780000D03*
%TD*%
D17*
%TO.C,D9*%
X39729008Y-91500000D03*
X39729008Y-87500000D03*
%TD*%
D14*
%TO.C,C5*%
X49177753Y-112530000D03*
X51077753Y-112530000D03*
%TD*%
D23*
%TO.C,U37*%
X81731967Y-139420000D03*
X81731967Y-138470000D03*
X81731967Y-137520000D03*
X84006967Y-137520000D03*
X84006967Y-138470000D03*
X84006967Y-139420000D03*
%TD*%
D14*
%TO.C,C8*%
X43150610Y-112530000D03*
X45050610Y-112530000D03*
%TD*%
D20*
%TO.C,U11*%
X33371325Y-115280000D03*
X33371325Y-116230000D03*
X33371325Y-117180000D03*
X31096325Y-117180000D03*
X31096325Y-115280000D03*
%TD*%
D24*
%TO.C,CIN3*%
X156389896Y-144517500D03*
X159339896Y-144517500D03*
%TD*%
D17*
%TO.C,D19*%
X68204896Y-91500000D03*
X68204896Y-87500000D03*
%TD*%
D11*
%TO.C,R98*%
X106527881Y-140650000D03*
X109452881Y-140650000D03*
%TD*%
%TO.C,R95*%
X90911053Y-138350000D03*
X93836053Y-138350000D03*
%TD*%
D19*
%TO.C,R21*%
X97581325Y-117792500D03*
X97581325Y-115967500D03*
%TD*%
D25*
%TO.C,Q16*%
X97477354Y-150905000D03*
X94427354Y-150905000D03*
X97477354Y-154255000D03*
X94427354Y-154255000D03*
D26*
X93672354Y-146280000D03*
X95952354Y-146280000D03*
X98232354Y-146280000D03*
%TD*%
D18*
%TO.C,C15*%
X31096325Y-108880000D03*
X31096325Y-110780000D03*
%TD*%
D17*
%TO.C,D1*%
X54029008Y-91500000D03*
X54029008Y-87500000D03*
%TD*%
D25*
%TO.C,Q3*%
X26180361Y-144145465D03*
X23130361Y-144145465D03*
X26180361Y-147495465D03*
X23130361Y-147495465D03*
D26*
X22375361Y-139520465D03*
X24655361Y-139520465D03*
X26935361Y-139520465D03*
%TD*%
D25*
%TO.C,Q9*%
X55387504Y-144145465D03*
X52337504Y-144145465D03*
X55387504Y-147495465D03*
X52337504Y-147495465D03*
D26*
X51582504Y-139520465D03*
X53862504Y-139520465D03*
X56142504Y-139520465D03*
%TD*%
D14*
%TO.C,C50*%
X112577881Y-141150000D03*
X114477881Y-141150000D03*
%TD*%
D13*
%TO.C,R27*%
X83789402Y-103782500D03*
X83789402Y-100857500D03*
%TD*%
D19*
%TO.C,R49*%
X61646325Y-117832500D03*
X61646325Y-116007500D03*
%TD*%
D14*
%TO.C,C20*%
X87073825Y-108550000D03*
X88973825Y-108550000D03*
%TD*%
D18*
%TO.C,C12*%
X37123467Y-108880000D03*
X37123467Y-110780000D03*
%TD*%
D25*
%TO.C,Q5*%
X35916075Y-144145465D03*
X32866075Y-144145465D03*
X35916075Y-147495465D03*
X32866075Y-147495465D03*
D26*
X32111075Y-139520465D03*
X34391075Y-139520465D03*
X36671075Y-139520465D03*
%TD*%
D11*
%TO.C,R99*%
X106527881Y-138350000D03*
X109452881Y-138350000D03*
%TD*%
D10*
%TO.C,D31*%
X35722437Y-163917163D03*
X35722437Y-167917163D03*
%TD*%
D20*
%TO.C,U25*%
X68886325Y-110450000D03*
X68886325Y-111400000D03*
X68886325Y-112350000D03*
X66611325Y-112350000D03*
X66611325Y-110450000D03*
%TD*%
D10*
%TO.C,D36*%
X53422437Y-163917163D03*
X53422437Y-167917163D03*
%TD*%
%TO.C,D32*%
X39222437Y-163917163D03*
X39222437Y-167917163D03*
%TD*%
D12*
%TO.C,R77*%
X69040381Y-135570000D03*
X66115381Y-135570000D03*
%TD*%
D13*
%TO.C,R23*%
X88450941Y-103782500D03*
X88450941Y-100857500D03*
%TD*%
D12*
%TO.C,R60*%
X35326194Y-136620465D03*
X32401194Y-136620465D03*
%TD*%
D17*
%TO.C,D13*%
X78944896Y-91500000D03*
X78944896Y-87500000D03*
%TD*%
D21*
%TO.C,RFBB1_TRIM1*%
X157064896Y-133817500D03*
X158889896Y-133817500D03*
%TD*%
D10*
%TO.C,D35*%
X49822437Y-163917163D03*
X49822437Y-167917163D03*
%TD*%
D17*
%TO.C,D11*%
X82444896Y-91500000D03*
X82444896Y-87500000D03*
%TD*%
D12*
%TO.C,R51*%
X154517396Y-151027500D03*
X151592396Y-151027500D03*
%TD*%
D18*
%TO.C,C1*%
X57204896Y-108880000D03*
X57204896Y-110780000D03*
%TD*%
D17*
%TO.C,D25*%
X57534896Y-91500000D03*
X57534896Y-87500000D03*
%TD*%
D18*
%TO.C,C10*%
X39123467Y-108880000D03*
X39123467Y-110780000D03*
%TD*%
D24*
%TO.C,CIN2*%
X156389896Y-148517500D03*
X159339896Y-148517500D03*
%TD*%
D17*
%TO.C,D15*%
X75344896Y-91500000D03*
X75344896Y-87500000D03*
%TD*%
D20*
%TO.C,U2*%
X57479896Y-115280000D03*
X57479896Y-116230000D03*
X57479896Y-117180000D03*
X55204896Y-117180000D03*
X55204896Y-115280000D03*
%TD*%
D12*
%TO.C,R97*%
X115452500Y-134440000D03*
X112527500Y-134440000D03*
%TD*%
D20*
%TO.C,U15*%
X94786325Y-110450000D03*
X94786325Y-111400000D03*
X94786325Y-112350000D03*
X92511325Y-112350000D03*
X92511325Y-110450000D03*
%TD*%
D10*
%TO.C,D42*%
X97900001Y-163600000D03*
X97900001Y-167600000D03*
%TD*%
D13*
%TO.C,R24*%
X90781710Y-103782500D03*
X90781710Y-100857500D03*
%TD*%
D25*
%TO.C,Q7*%
X45651790Y-144145465D03*
X42601790Y-144145465D03*
X45651790Y-147495465D03*
X42601790Y-147495465D03*
D26*
X41846790Y-139520465D03*
X44126790Y-139520465D03*
X46406790Y-139520465D03*
%TD*%
D21*
%TO.C,RFBT1*%
X153324896Y-131377500D03*
X155149896Y-131377500D03*
%TD*%
D10*
%TO.C,D33*%
X42722437Y-163917163D03*
X42722437Y-167917163D03*
%TD*%
D19*
%TO.C,R45*%
X67086325Y-117832500D03*
X67086325Y-116007500D03*
%TD*%
D10*
%TO.C,D44*%
X108400000Y-163600000D03*
X108400000Y-167600000D03*
%TD*%
D13*
%TO.C,R20*%
X95366325Y-103845000D03*
X95366325Y-100920000D03*
%TD*%
D14*
%TO.C,C51*%
X112577881Y-143170000D03*
X114477881Y-143170000D03*
%TD*%
D19*
%TO.C,R37*%
X77276325Y-117765000D03*
X77276325Y-115940000D03*
%TD*%
D27*
%TO.C,C32*%
X154869896Y-139597500D03*
X152969896Y-139597500D03*
%TD*%
D13*
%TO.C,R44*%
X67474018Y-103782500D03*
X67474018Y-100857500D03*
%TD*%
%TO.C,R36*%
X76797095Y-103782500D03*
X76797095Y-100857500D03*
%TD*%
D19*
%TO.C,R25*%
X92916325Y-117802500D03*
X92916325Y-115977500D03*
%TD*%
D12*
%TO.C,R100*%
X109452881Y-142950000D03*
X106527881Y-142950000D03*
%TD*%
D20*
%TO.C,U7*%
X45425610Y-115280000D03*
X45425610Y-116230000D03*
X45425610Y-117180000D03*
X43150610Y-117180000D03*
X43150610Y-115280000D03*
%TD*%
D17*
%TO.C,D3*%
X50429008Y-91500000D03*
X50429008Y-87500000D03*
%TD*%
D14*
%TO.C,C40*%
X66177881Y-141150000D03*
X68077881Y-141150000D03*
%TD*%
D16*
%TO.C,R18*%
X99411325Y-114200000D03*
X97586325Y-114200000D03*
%TD*%
D11*
%TO.C,R63*%
X42415729Y-134280000D03*
X45340729Y-134280000D03*
%TD*%
D18*
%TO.C,C4*%
X51177753Y-108880000D03*
X51177753Y-110780000D03*
%TD*%
D12*
%TO.C,R50*%
X154632396Y-153367500D03*
X151707396Y-153367500D03*
%TD*%
D20*
%TO.C,U19*%
X84186325Y-110350000D03*
X84186325Y-111300000D03*
X84186325Y-112250000D03*
X81911325Y-112250000D03*
X81911325Y-110350000D03*
%TD*%
D18*
%TO.C,C35*%
X25069182Y-108880000D03*
X25069182Y-110780000D03*
%TD*%
D12*
%TO.C,R64*%
X45347028Y-136620465D03*
X42422028Y-136620465D03*
%TD*%
D25*
%TO.C,Q17*%
X111529896Y-150905000D03*
X108479896Y-150905000D03*
X111529896Y-154255000D03*
X108479896Y-154255000D03*
D26*
X107724896Y-146280000D03*
X110004896Y-146280000D03*
X112284896Y-146280000D03*
%TD*%
D28*
%TO.C,Q2*%
X154224896Y-146170000D03*
X152324896Y-146170000D03*
X153274896Y-144295000D03*
%TD*%
D10*
%TO.C,D38*%
X60522437Y-163917163D03*
X60522437Y-167917163D03*
%TD*%
D13*
%TO.C,R31*%
X79127864Y-103782500D03*
X79127864Y-100857500D03*
%TD*%
D14*
%TO.C,C45*%
X81569467Y-143170000D03*
X83469467Y-143170000D03*
%TD*%
%TO.C,C30*%
X60995254Y-108600000D03*
X62895254Y-108600000D03*
%TD*%
D18*
%TO.C,C6*%
X49177753Y-108880000D03*
X49177753Y-110780000D03*
%TD*%
D20*
%TO.C,U23*%
X74198825Y-110400000D03*
X74198825Y-111350000D03*
X74198825Y-112300000D03*
X71923825Y-112300000D03*
X71923825Y-110400000D03*
%TD*%
D23*
%TO.C,U35*%
X66340381Y-139420000D03*
X66340381Y-138470000D03*
X66340381Y-137520000D03*
X68615381Y-137520000D03*
X68615381Y-138470000D03*
X68615381Y-139420000D03*
%TD*%
%TO.C,U40*%
X112740381Y-139420000D03*
X112740381Y-138470000D03*
X112740381Y-137520000D03*
X115015381Y-137520000D03*
X115015381Y-138470000D03*
X115015381Y-139420000D03*
%TD*%
D11*
%TO.C,R94*%
X90911053Y-140650000D03*
X93836053Y-140650000D03*
%TD*%
D18*
%TO.C,C7*%
X45150610Y-108880000D03*
X45150610Y-110780000D03*
%TD*%
D25*
%TO.C,Q12*%
X68322753Y-150905000D03*
X65272753Y-150905000D03*
X68322753Y-154255000D03*
X65272753Y-154255000D03*
D26*
X64517753Y-146280000D03*
X66797753Y-146280000D03*
X69077753Y-146280000D03*
%TD*%
D18*
%TO.C,C13*%
X33096325Y-108880000D03*
X33096325Y-110780000D03*
%TD*%
D17*
%TO.C,D23*%
X61114896Y-91500000D03*
X61114896Y-87500000D03*
%TD*%
D13*
%TO.C,R48*%
X60481710Y-103782500D03*
X60481710Y-100857500D03*
%TD*%
D24*
%TO.C,CIN1*%
X156389896Y-152017500D03*
X159339896Y-152017500D03*
%TD*%
D10*
%TO.C,D39*%
X64093790Y-163917163D03*
X64093790Y-167917163D03*
%TD*%
%TO.C,D41*%
X67798653Y-163917163D03*
X67798653Y-167917163D03*
%TD*%
D14*
%TO.C,C11*%
X37123467Y-112530000D03*
X39023467Y-112530000D03*
%TD*%
D19*
%TO.C,R41*%
X72266325Y-117820000D03*
X72266325Y-115995000D03*
%TD*%
D20*
%TO.C,U17*%
X89511325Y-110400000D03*
X89511325Y-111350000D03*
X89511325Y-112300000D03*
X87236325Y-112300000D03*
X87236325Y-110400000D03*
%TD*%
D11*
%TO.C,R55*%
X22487396Y-134280000D03*
X25412396Y-134280000D03*
%TD*%
D14*
%TO.C,C28*%
X66448825Y-108600000D03*
X68348825Y-108600000D03*
%TD*%
D10*
%TO.C,D43*%
X77849486Y-163862663D03*
X77849486Y-167862663D03*
%TD*%
D25*
%TO.C,Q14*%
X82750053Y-150805000D03*
X79700053Y-150805000D03*
X82750053Y-154155000D03*
X79700053Y-154155000D03*
D26*
X78945053Y-146180000D03*
X81225053Y-146180000D03*
X83505053Y-146180000D03*
%TD*%
D14*
%TO.C,C16*%
X97048825Y-108700000D03*
X98948825Y-108700000D03*
%TD*%
D23*
%TO.C,U39*%
X97123553Y-139420000D03*
X97123553Y-138470000D03*
X97123553Y-137520000D03*
X99398553Y-137520000D03*
X99398553Y-138470000D03*
X99398553Y-139420000D03*
%TD*%
D12*
%TO.C,R96*%
X93836053Y-142950000D03*
X90911053Y-142950000D03*
%TD*%
D29*
%TO.C,D27*%
X151307396Y-148400000D03*
X154607396Y-148400000D03*
%TD*%
D17*
%TO.C,D21*%
X64684896Y-91500000D03*
X64684896Y-87500000D03*
%TD*%
D14*
%TO.C,C48*%
X96961053Y-141150000D03*
X98861053Y-141150000D03*
%TD*%
D16*
%TO.C,R42*%
X68811325Y-114100000D03*
X66986325Y-114100000D03*
%TD*%
D19*
%TO.C,R33*%
X82336325Y-117670000D03*
X82336325Y-115845000D03*
%TD*%
D10*
%TO.C,D34*%
X46322437Y-163917163D03*
X46322437Y-167917163D03*
%TD*%
D30*
%TO.C,D28*%
X146100000Y-167350000D03*
X146100000Y-163050000D03*
%TD*%
D20*
%TO.C,U9*%
X39398467Y-115280000D03*
X39398467Y-116230000D03*
X39398467Y-117180000D03*
X37123467Y-117180000D03*
X37123467Y-115280000D03*
%TD*%
D13*
%TO.C,R35*%
X74466325Y-103782500D03*
X74466325Y-100857500D03*
%TD*%
D16*
%TO.C,R30*%
X84111325Y-114000000D03*
X82286325Y-114000000D03*
%TD*%
D20*
%TO.C,U13*%
X99486325Y-110550000D03*
X99486325Y-111500000D03*
X99486325Y-112450000D03*
X97211325Y-112450000D03*
X97211325Y-110550000D03*
%TD*%
D10*
%TO.C,D37*%
X57022437Y-163917163D03*
X57022437Y-167917163D03*
%TD*%
D17*
%TO.C,D29*%
X36162341Y-91500000D03*
X36162341Y-87500000D03*
%TD*%
M02*
