%TF.GenerationSoftware,KiCad,Pcbnew,10.0.1-10.0.1~ubuntu24.04.1*%
%TF.CreationDate,2026-04-28T12:04:17+05:00*%
%TF.ProjectId,MY_POWERFULL_PLC_PCB,4d595f50-4f57-4455-9246-554c4c5f504c,rev?*%
%TF.SameCoordinates,Original*%
%TF.FileFunction,Paste,Top*%
%TF.FilePolarity,Positive*%
%FSLAX46Y46*%
G04 Gerber Fmt 4.6, Leading zero omitted, Abs format (unit mm)*
G04 Created by KiCad (PCBNEW 10.0.1-10.0.1~ubuntu24.04.1) date 2026-04-28 12:04:17*
%MOMM*%
%LPD*%
G01*
G04 APERTURE LIST*
G04 Aperture macros list*
%AMRoundRect*
0 Rectangle with rounded corners*
0 $1 Rounding radius*
0 $2 $3 $4 $5 $6 $7 $8 $9 X,Y pos of 4 corners*
0 Add a 4 corners polygon primitive as box body*
4,1,4,$2,$3,$4,$5,$6,$7,$8,$9,$2,$3,0*
0 Add four circle primitives for the rounded corners*
1,1,$1+$1,$2,$3*
1,1,$1+$1,$4,$5*
1,1,$1+$1,$6,$7*
1,1,$1+$1,$8,$9*
0 Add four rect primitives between the rounded corners*
20,1,$1+$1,$2,$3,$4,$5,0*
20,1,$1+$1,$4,$5,$6,$7,0*
20,1,$1+$1,$6,$7,$8,$9,0*
20,1,$1+$1,$8,$9,$2,$3,0*%
G04 Aperture macros list end*
%ADD10RoundRect,0.250000X0.312500X0.625000X-0.312500X0.625000X-0.312500X-0.625000X0.312500X-0.625000X0*%
%ADD11RoundRect,0.250000X-0.312500X-0.625000X0.312500X-0.625000X0.312500X0.625000X-0.312500X0.625000X0*%
%ADD12RoundRect,0.250000X0.250000X0.475000X-0.250000X0.475000X-0.250000X-0.475000X0.250000X-0.475000X0*%
%ADD13RoundRect,0.150000X0.512500X0.150000X-0.512500X0.150000X-0.512500X-0.150000X0.512500X-0.150000X0*%
%ADD14RoundRect,0.250000X-0.350000X0.850000X-0.350000X-0.850000X0.350000X-0.850000X0.350000X0.850000X0*%
%ADD15RoundRect,0.250000X-1.125000X1.275000X-1.125000X-1.275000X1.125000X-1.275000X1.125000X1.275000X0*%
%ADD16R,1.000000X3.000000*%
%ADD17RoundRect,0.250000X0.262500X0.450000X-0.262500X0.450000X-0.262500X-0.450000X0.262500X-0.450000X0*%
%ADD18RoundRect,0.250000X0.625000X-0.312500X0.625000X0.312500X-0.625000X0.312500X-0.625000X-0.312500X0*%
%ADD19RoundRect,0.112500X0.187500X0.112500X-0.187500X0.112500X-0.187500X-0.112500X0.187500X-0.112500X0*%
%ADD20R,2.400000X1.500000*%
%ADD21RoundRect,0.250000X0.650000X-0.325000X0.650000X0.325000X-0.650000X0.325000X-0.650000X-0.325000X0*%
%ADD22R,0.640000X2.000000*%
%ADD23RoundRect,0.150000X-0.150000X0.825000X-0.150000X-0.825000X0.150000X-0.825000X0.150000X0.825000X0*%
%ADD24R,1.000000X3.150000*%
%ADD25RoundRect,0.250000X0.475000X-0.250000X0.475000X0.250000X-0.475000X0.250000X-0.475000X-0.250000X0*%
%ADD26RoundRect,0.250000X-0.475000X0.250000X-0.475000X-0.250000X0.475000X-0.250000X0.475000X0.250000X0*%
%ADD27RoundRect,0.250000X0.325000X1.100000X-0.325000X1.100000X-0.325000X-1.100000X0.325000X-1.100000X0*%
%ADD28RoundRect,0.375000X0.625000X0.375000X-0.625000X0.375000X-0.625000X-0.375000X0.625000X-0.375000X0*%
%ADD29RoundRect,0.500000X0.500000X1.400000X-0.500000X1.400000X-0.500000X-1.400000X0.500000X-1.400000X0*%
G04 APERTURE END LIST*
D10*
%TO.C,R82*%
X101939760Y-141042890D03*
X99014760Y-141042890D03*
%TD*%
%TO.C,R75*%
X86810077Y-138742890D03*
X83885077Y-138742890D03*
%TD*%
%TO.C,R71*%
X68995394Y-138742890D03*
X71920394Y-138742890D03*
%TD*%
%TO.C,R70*%
X68995394Y-141042890D03*
X71920394Y-141042890D03*
%TD*%
%TO.C,R91*%
X117127086Y-138742890D03*
X114202086Y-138742890D03*
%TD*%
D11*
%TO.C,R76*%
X83885077Y-143342890D03*
X86810077Y-143342890D03*
%TD*%
%TO.C,R92*%
X114202086Y-143342890D03*
X117127086Y-143342890D03*
%TD*%
%TO.C,R72*%
X71920394Y-143342890D03*
X68995394Y-143342890D03*
%TD*%
%TO.C,R84*%
X99014760Y-143342890D03*
X101939760Y-143342890D03*
%TD*%
D10*
%TO.C,R83*%
X101939760Y-138742890D03*
X99014760Y-138742890D03*
%TD*%
%TO.C,R74*%
X86810077Y-141042890D03*
X83885077Y-141042890D03*
%TD*%
%TO.C,R90*%
X117127086Y-141042890D03*
X114202086Y-141042890D03*
%TD*%
D12*
%TO.C,C36*%
X63904896Y-141852890D03*
X65804896Y-141852890D03*
%TD*%
D13*
%TO.C,U33*%
X63367396Y-140122890D03*
X63367396Y-139172890D03*
X63367396Y-138222890D03*
X65642396Y-138222890D03*
X65642396Y-139172890D03*
X65642396Y-140122890D03*
%TD*%
D12*
%TO.C,C37*%
X63904896Y-143872890D03*
X65804896Y-143872890D03*
%TD*%
D14*
%TO.C,Q10*%
X66004431Y-147372425D03*
X68284431Y-147372425D03*
X70564431Y-147372425D03*
D15*
X66759431Y-155347425D03*
X69809431Y-155347425D03*
X66759431Y-151997425D03*
X69809431Y-151997425D03*
%TD*%
D10*
%TO.C,R69*%
X60097500Y-135530000D03*
X63022500Y-135530000D03*
%TD*%
D16*
%TO.C,U1*%
X110704896Y-129500000D03*
X113244896Y-129500000D03*
X115784896Y-129500000D03*
X118324896Y-129500000D03*
X120864896Y-129500000D03*
X123404896Y-129500000D03*
X125944896Y-129500000D03*
X128484896Y-129500000D03*
X108164896Y-124380000D03*
X110704896Y-124380000D03*
X113244896Y-124380000D03*
X115784896Y-124380000D03*
X120864896Y-124380000D03*
X123404896Y-124380000D03*
X125944896Y-124380000D03*
X128464896Y-124380000D03*
X92924896Y-124380000D03*
X92924896Y-129500000D03*
X95464896Y-124380000D03*
X95464896Y-129500000D03*
X98004896Y-124380000D03*
X98004896Y-129500000D03*
X100544896Y-124380000D03*
X100544896Y-129500000D03*
X100544896Y-129500000D03*
X103084896Y-124380000D03*
X103084896Y-129500000D03*
X105624896Y-124380000D03*
X105624896Y-129500000D03*
X108164896Y-129500000D03*
X118304896Y-124380000D03*
%TD*%
D17*
%TO.C,R14*%
X39462396Y-118311250D03*
X37637396Y-118311250D03*
%TD*%
D18*
%TO.C,R6*%
X50956325Y-102332500D03*
X50956325Y-99407500D03*
%TD*%
D19*
%TO.C,D24*%
X67356325Y-105910000D03*
X65256325Y-105910000D03*
%TD*%
D12*
%TO.C,C46*%
X111011588Y-141852890D03*
X109111588Y-141852890D03*
%TD*%
D18*
%TO.C,R16*%
X33002039Y-107129369D03*
X33002039Y-104204369D03*
%TD*%
D11*
%TO.C,R62*%
X42346194Y-136320465D03*
X45271194Y-136320465D03*
%TD*%
D19*
%TO.C,D26*%
X63207754Y-105910000D03*
X61107754Y-105910000D03*
%TD*%
D20*
%TO.C,L1*%
X153939896Y-145967500D03*
X153939896Y-151467500D03*
%TD*%
D21*
%TO.C,C25*%
X75568365Y-103545000D03*
X75568365Y-100595000D03*
%TD*%
D18*
%TO.C,R13*%
X39007753Y-107129369D03*
X39007753Y-104204369D03*
%TD*%
D22*
%TO.C,U22*%
X75956325Y-108210000D03*
X73416325Y-108210000D03*
X73416325Y-114510000D03*
X75956325Y-114510000D03*
%TD*%
D23*
%TO.C,U10*%
X40154896Y-111136250D03*
X38884896Y-111136250D03*
X37614896Y-111136250D03*
X36344896Y-111136250D03*
X36344896Y-116086250D03*
X37614896Y-116086250D03*
X38884896Y-116086250D03*
X40154896Y-116086250D03*
%TD*%
D10*
%TO.C,R1*%
X26147396Y-133780000D03*
X23222396Y-133780000D03*
%TD*%
D21*
%TO.C,C27*%
X71593875Y-103545000D03*
X71593875Y-100595000D03*
%TD*%
D18*
%TO.C,R15*%
X32986325Y-102332500D03*
X32986325Y-99407500D03*
%TD*%
%TO.C,R53*%
X26996325Y-107032500D03*
X26996325Y-104107500D03*
%TD*%
D23*
%TO.C,U8*%
X46182039Y-111136250D03*
X44912039Y-111136250D03*
X43642039Y-111136250D03*
X42372039Y-111136250D03*
X42372039Y-116086250D03*
X43642039Y-116086250D03*
X44912039Y-116086250D03*
X46182039Y-116086250D03*
%TD*%
D13*
%TO.C,U34*%
X80532079Y-140122890D03*
X80532079Y-139172890D03*
X80532079Y-138222890D03*
X78257079Y-138222890D03*
X78257079Y-139172890D03*
X78257079Y-140122890D03*
%TD*%
D17*
%TO.C,R11*%
X45489539Y-118311250D03*
X43664539Y-118311250D03*
%TD*%
D18*
%TO.C,R4*%
X57024896Y-107052500D03*
X57024896Y-104127500D03*
%TD*%
D17*
%TO.C,R17*%
X33435254Y-118311250D03*
X31610254Y-118311250D03*
%TD*%
D11*
%TO.C,R2*%
X23252861Y-136320465D03*
X26177861Y-136320465D03*
%TD*%
D18*
%TO.C,R7*%
X51019182Y-107129369D03*
X51019182Y-104204369D03*
%TD*%
D24*
%TO.C,MOD1*%
X22120000Y-63900000D03*
X22120000Y-58850000D03*
X24660000Y-63900000D03*
X24660000Y-58850000D03*
X27200000Y-63900000D03*
X27200000Y-58850000D03*
X29740000Y-63900000D03*
X29740000Y-58850000D03*
X32280000Y-63900000D03*
X32280000Y-58850000D03*
X34820000Y-63900000D03*
X34820000Y-58850000D03*
X37360000Y-63900000D03*
X37360000Y-58850000D03*
X39900000Y-63900000D03*
X39900000Y-58850000D03*
X42440000Y-63900000D03*
X42440000Y-58850000D03*
X44980000Y-63900000D03*
X44980000Y-58850000D03*
X47520000Y-63900000D03*
X47520000Y-58850000D03*
X50060000Y-63900000D03*
X50060000Y-58850000D03*
X52600000Y-63900000D03*
X52600000Y-58850000D03*
X55140000Y-63900000D03*
X55140000Y-58850000D03*
X57680000Y-63900000D03*
X57680000Y-58850000D03*
X60220000Y-63900000D03*
X60220000Y-58850000D03*
X62760000Y-63900000D03*
X62760000Y-58850000D03*
X65300000Y-63900000D03*
X65300000Y-58850000D03*
X67840000Y-63900000D03*
X67840000Y-58850000D03*
X70380000Y-63900000D03*
X70380000Y-58850000D03*
X72920000Y-63900000D03*
X72920000Y-58850000D03*
X75460000Y-63900000D03*
X75460000Y-58850000D03*
X22120000Y-28880000D03*
X22120000Y-23830000D03*
X24660000Y-28880000D03*
X24660000Y-23830000D03*
X27200000Y-28880000D03*
X27200000Y-23830000D03*
X29740000Y-28880000D03*
X29740000Y-23830000D03*
X32280000Y-28880000D03*
X32280000Y-23830000D03*
X34820000Y-28880000D03*
X34820000Y-23830000D03*
X37360000Y-28880000D03*
X37360000Y-23830000D03*
X39900000Y-28880000D03*
X39900000Y-23830000D03*
X42440000Y-28880000D03*
X42440000Y-23830000D03*
X44980000Y-28880000D03*
X44980000Y-23830000D03*
X47520000Y-28880000D03*
X47520000Y-23830000D03*
X50060000Y-28880000D03*
X50060000Y-23830000D03*
X52600000Y-28880000D03*
X52600000Y-23830000D03*
X55140000Y-28880000D03*
X55140000Y-23830000D03*
X57680000Y-28880000D03*
X57680000Y-23830000D03*
X60220000Y-28880000D03*
X60220000Y-23830000D03*
X62760000Y-28880000D03*
X62760000Y-23830000D03*
X65300000Y-28880000D03*
X65300000Y-23830000D03*
X67840000Y-28880000D03*
X67840000Y-23830000D03*
X70380000Y-28880000D03*
X70380000Y-23830000D03*
X72920000Y-28880000D03*
X72920000Y-23830000D03*
X75460000Y-28880000D03*
X75460000Y-23830000D03*
%TD*%
D15*
%TO.C,Q1*%
X26289896Y-144165000D03*
X23239896Y-144165000D03*
X26289896Y-147515000D03*
X23239896Y-147515000D03*
D14*
X27044896Y-139540000D03*
X24764896Y-139540000D03*
X22484896Y-139540000D03*
%TD*%
D25*
%TO.C,CIN5*%
X156339896Y-139217500D03*
X156339896Y-137317500D03*
%TD*%
D23*
%TO.C,U3*%
X58236325Y-111136250D03*
X56966325Y-111136250D03*
X55696325Y-111136250D03*
X54426325Y-111136250D03*
X54426325Y-116086250D03*
X55696325Y-116086250D03*
X56966325Y-116086250D03*
X58236325Y-116086250D03*
%TD*%
D25*
%TO.C,CIN4*%
X153339896Y-139217500D03*
X153339896Y-137317500D03*
%TD*%
D26*
%TO.C,CCOUT2*%
X156339896Y-133867500D03*
X156339896Y-135767500D03*
%TD*%
D19*
%TO.C,D18*%
X79756325Y-105910000D03*
X77656325Y-105910000D03*
%TD*%
D26*
%TO.C,CCOUT1*%
X153339896Y-133867500D03*
X153339896Y-135767500D03*
%TD*%
D21*
%TO.C,C29*%
X67619386Y-103545000D03*
X67619386Y-100595000D03*
%TD*%
D17*
%TO.C,R5*%
X57543825Y-118311250D03*
X55718825Y-118311250D03*
%TD*%
D10*
%TO.C,R65*%
X54667396Y-133780000D03*
X51742396Y-133780000D03*
%TD*%
D21*
%TO.C,C19*%
X87591835Y-103545000D03*
X87591835Y-100595000D03*
%TD*%
D10*
%TO.C,R81*%
X92620095Y-135952890D03*
X89695095Y-135952890D03*
%TD*%
D11*
%TO.C,R58*%
X32799528Y-136320465D03*
X35724528Y-136320465D03*
%TD*%
D18*
%TO.C,R10*%
X45013468Y-107129369D03*
X45013468Y-104204369D03*
%TD*%
D21*
%TO.C,C31*%
X63596325Y-103545000D03*
X63596325Y-100595000D03*
%TD*%
D27*
%TO.C,COUT1*%
X148964896Y-147117500D03*
X146014896Y-147117500D03*
%TD*%
D15*
%TO.C,Q13*%
X98708797Y-151897425D03*
X95658797Y-151897425D03*
X98708797Y-155247425D03*
X95658797Y-155247425D03*
D14*
X99463797Y-147272425D03*
X97183797Y-147272425D03*
X94903797Y-147272425D03*
%TD*%
D19*
%TO.C,D20*%
X75556325Y-105910000D03*
X73456325Y-105910000D03*
%TD*%
D21*
%TO.C,C21*%
X83617346Y-103545000D03*
X83617346Y-100595000D03*
%TD*%
D22*
%TO.C,U26*%
X67756325Y-108210000D03*
X65216325Y-108210000D03*
X65216325Y-114510000D03*
X67756325Y-114510000D03*
%TD*%
D18*
%TO.C,R9*%
X44966325Y-102332500D03*
X44966325Y-99407500D03*
%TD*%
D12*
%TO.C,C42*%
X95824262Y-141852890D03*
X93924262Y-141852890D03*
%TD*%
D22*
%TO.C,U16*%
X88356325Y-108210000D03*
X85816325Y-108210000D03*
X85816325Y-114510000D03*
X88356325Y-114510000D03*
%TD*%
D23*
%TO.C,U32*%
X28100611Y-111136250D03*
X26830611Y-111136250D03*
X25560611Y-111136250D03*
X24290611Y-111136250D03*
X24290611Y-116086250D03*
X25560611Y-116086250D03*
X26830611Y-116086250D03*
X28100611Y-116086250D03*
%TD*%
%TO.C,U5*%
X52209182Y-111136250D03*
X50939182Y-111136250D03*
X49669182Y-111136250D03*
X48399182Y-111136250D03*
X48399182Y-116086250D03*
X49669182Y-116086250D03*
X50939182Y-116086250D03*
X52209182Y-116086250D03*
%TD*%
D18*
%TO.C,R52*%
X26996325Y-102332500D03*
X26996325Y-99407500D03*
%TD*%
D22*
%TO.C,U14*%
X92556325Y-108210000D03*
X90016325Y-108210000D03*
X90016325Y-114510000D03*
X92556325Y-114510000D03*
%TD*%
%TO.C,U28*%
X63607754Y-108210000D03*
X61067754Y-108210000D03*
X61067754Y-114510000D03*
X63607754Y-114510000D03*
%TD*%
D19*
%TO.C,D12*%
X92156325Y-105910000D03*
X90056325Y-105910000D03*
%TD*%
D23*
%TO.C,U12*%
X34127754Y-111136250D03*
X32857754Y-111136250D03*
X31587754Y-111136250D03*
X30317754Y-111136250D03*
X30317754Y-116086250D03*
X31587754Y-116086250D03*
X32857754Y-116086250D03*
X34127754Y-116086250D03*
%TD*%
D18*
%TO.C,R3*%
X56996325Y-102332500D03*
X56996325Y-99407500D03*
%TD*%
D15*
%TO.C,Q15*%
X112956123Y-151897425D03*
X109906123Y-151897425D03*
X112956123Y-155247425D03*
X109906123Y-155247425D03*
D14*
X113711123Y-147272425D03*
X111431123Y-147272425D03*
X109151123Y-147272425D03*
%TD*%
D17*
%TO.C,R54*%
X27408111Y-118311250D03*
X25583111Y-118311250D03*
%TD*%
D10*
%TO.C,R89*%
X108074088Y-135952890D03*
X105149088Y-135952890D03*
%TD*%
D18*
%TO.C,R12*%
X38976325Y-102332500D03*
X38976325Y-99407500D03*
%TD*%
D19*
%TO.C,D4*%
X51104182Y-108911250D03*
X49004182Y-108911250D03*
%TD*%
D22*
%TO.C,U18*%
X84256325Y-108210000D03*
X81716325Y-108210000D03*
X81716325Y-114510000D03*
X84256325Y-114510000D03*
%TD*%
D10*
%TO.C,R61*%
X45160729Y-133780000D03*
X42235729Y-133780000D03*
%TD*%
D19*
%TO.C,D22*%
X71456325Y-105910000D03*
X69356325Y-105910000D03*
%TD*%
%TO.C,D14*%
X87956325Y-105910000D03*
X85856325Y-105910000D03*
%TD*%
D15*
%TO.C,Q6*%
X45449896Y-144165000D03*
X42399896Y-144165000D03*
X45449896Y-147515000D03*
X42399896Y-147515000D03*
D14*
X46204896Y-139540000D03*
X43924896Y-139540000D03*
X41644896Y-139540000D03*
%TD*%
D15*
%TO.C,Q4*%
X35869896Y-144165000D03*
X32819896Y-144165000D03*
X35869896Y-147515000D03*
X32819896Y-147515000D03*
D14*
X36624896Y-139540000D03*
X34344896Y-139540000D03*
X32064896Y-139540000D03*
%TD*%
D15*
%TO.C,Q11*%
X84379114Y-152097425D03*
X81329114Y-152097425D03*
X84379114Y-155447425D03*
X81329114Y-155447425D03*
D14*
X85134114Y-147472425D03*
X82854114Y-147472425D03*
X80574114Y-147472425D03*
%TD*%
D10*
%TO.C,R57*%
X35654063Y-133780000D03*
X32729063Y-133780000D03*
%TD*%
D13*
%TO.C,U36*%
X95661762Y-140122890D03*
X95661762Y-139172890D03*
X95661762Y-138222890D03*
X93386762Y-138222890D03*
X93386762Y-139172890D03*
X93386762Y-140122890D03*
%TD*%
D15*
%TO.C,Q8*%
X55029896Y-144165000D03*
X51979896Y-144165000D03*
X55029896Y-147515000D03*
X51979896Y-147515000D03*
D14*
X55784896Y-139540000D03*
X53504896Y-139540000D03*
X51224896Y-139540000D03*
%TD*%
D13*
%TO.C,U38*%
X110849088Y-140122890D03*
X110849088Y-139172890D03*
X110849088Y-138222890D03*
X108574088Y-138222890D03*
X108574088Y-139172890D03*
X108574088Y-140122890D03*
%TD*%
D19*
%TO.C,D16*%
X83856325Y-105910000D03*
X81756325Y-105910000D03*
%TD*%
D11*
%TO.C,R66*%
X51892861Y-136320465D03*
X54817861Y-136320465D03*
%TD*%
D17*
%TO.C,R8*%
X51516682Y-118311250D03*
X49691682Y-118311250D03*
%TD*%
D19*
%TO.C,D30*%
X26995611Y-108911250D03*
X24895611Y-108911250D03*
%TD*%
D12*
%TO.C,C47*%
X111011588Y-143872890D03*
X109111588Y-143872890D03*
%TD*%
D27*
%TO.C,COUT2*%
X148989896Y-143417500D03*
X146039896Y-143417500D03*
%TD*%
D28*
%TO.C,U30*%
X150089896Y-138567500D03*
X150089896Y-136267500D03*
D29*
X143789896Y-136267500D03*
D28*
X150089896Y-133967500D03*
%TD*%
D19*
%TO.C,D8*%
X39049896Y-108911250D03*
X36949896Y-108911250D03*
%TD*%
%TO.C,D6*%
X45077039Y-108911250D03*
X42977039Y-108911250D03*
%TD*%
D22*
%TO.C,U24*%
X71856325Y-108210000D03*
X69316325Y-108210000D03*
X69316325Y-114510000D03*
X71856325Y-114510000D03*
%TD*%
D19*
%TO.C,D2*%
X57131325Y-108911250D03*
X55031325Y-108911250D03*
%TD*%
D21*
%TO.C,C23*%
X79642856Y-103545000D03*
X79642856Y-100595000D03*
%TD*%
D12*
%TO.C,C43*%
X95824262Y-143872890D03*
X93924262Y-143872890D03*
%TD*%
D19*
%TO.C,D10*%
X33022754Y-108911250D03*
X30922754Y-108911250D03*
%TD*%
D12*
%TO.C,C39*%
X80694579Y-143872890D03*
X78794579Y-143872890D03*
%TD*%
D10*
%TO.C,R73*%
X77823746Y-135952890D03*
X74898746Y-135952890D03*
%TD*%
D22*
%TO.C,U20*%
X80156325Y-108210000D03*
X77616325Y-108210000D03*
X77616325Y-114510000D03*
X80156325Y-114510000D03*
%TD*%
D21*
%TO.C,C17*%
X91666325Y-103445000D03*
X91666325Y-100495000D03*
%TD*%
D27*
%TO.C,COUT3*%
X148964896Y-150717500D03*
X146014896Y-150717500D03*
%TD*%
D12*
%TO.C,C38*%
X80694579Y-141852890D03*
X78794579Y-141852890D03*
%TD*%
M02*
