%TF.GenerationSoftware,KiCad,Pcbnew,10.0.1-10.0.1~ubuntu24.04.1*%
%TF.CreationDate,2026-04-28T12:04:17+05:00*%
%TF.ProjectId,MY_POWERFULL_PLC_PCB,4d595f50-4f57-4455-9246-554c4c5f504c,rev?*%
%TF.SameCoordinates,Original*%
%TF.FileFunction,Soldermask,Top*%
%TF.FilePolarity,Negative*%
%FSLAX46Y46*%
G04 Gerber Fmt 4.6, Leading zero omitted, Abs format (unit mm)*
G04 Created by KiCad (PCBNEW 10.0.1-10.0.1~ubuntu24.04.1) date 2026-04-28 12:04:17*
%MOMM*%
%LPD*%
G01*
G04 APERTURE LIST*
G04 Aperture macros list*
%AMRoundRect*
0 Rectangle with rounded corners*
0 $1 Rounding radius*
0 $2 $3 $4 $5 $6 $7 $8 $9 X,Y pos of 4 corners*
0 Add a 4 corners polygon primitive as box body*
4,1,4,$2,$3,$4,$5,$6,$7,$8,$9,$2,$3,0*
0 Add four circle primitives for the rounded corners*
1,1,$1+$1,$2,$3*
1,1,$1+$1,$4,$5*
1,1,$1+$1,$6,$7*
1,1,$1+$1,$8,$9*
0 Add four rect primitives between the rounded corners*
20,1,$1+$1,$2,$3,$4,$5,0*
20,1,$1+$1,$4,$5,$6,$7,0*
20,1,$1+$1,$6,$7,$8,$9,0*
20,1,$1+$1,$8,$9,$2,$3,0*%
G04 Aperture macros list end*
%ADD10R,1.700000X1.700000*%
%ADD11C,1.700000*%
%ADD12RoundRect,0.250000X0.312500X0.625000X-0.312500X0.625000X-0.312500X-0.625000X0.312500X-0.625000X0*%
%ADD13RoundRect,0.250000X-0.312500X-0.625000X0.312500X-0.625000X0.312500X0.625000X-0.312500X0.625000X0*%
%ADD14RoundRect,0.250000X0.250000X0.475000X-0.250000X0.475000X-0.250000X-0.475000X0.250000X-0.475000X0*%
%ADD15RoundRect,0.150000X0.512500X0.150000X-0.512500X0.150000X-0.512500X-0.150000X0.512500X-0.150000X0*%
%ADD16RoundRect,0.250000X-0.350000X0.850000X-0.350000X-0.850000X0.350000X-0.850000X0.350000X0.850000X0*%
%ADD17RoundRect,0.249997X-2.650003X2.950003X-2.650003X-2.950003X2.650003X-2.950003X2.650003X2.950003X0*%
%ADD18R,1.000000X3.000000*%
%ADD19RoundRect,0.250000X0.262500X0.450000X-0.262500X0.450000X-0.262500X-0.450000X0.262500X-0.450000X0*%
%ADD20RoundRect,0.250000X0.625000X-0.312500X0.625000X0.312500X-0.625000X0.312500X-0.625000X-0.312500X0*%
%ADD21RoundRect,0.112500X0.187500X0.112500X-0.187500X0.112500X-0.187500X-0.112500X0.187500X-0.112500X0*%
%ADD22R,2.400000X1.500000*%
%ADD23RoundRect,0.250000X0.650000X-0.325000X0.650000X0.325000X-0.650000X0.325000X-0.650000X-0.325000X0*%
%ADD24R,0.640000X2.000000*%
%ADD25RoundRect,0.150000X-0.150000X0.825000X-0.150000X-0.825000X0.150000X-0.825000X0.150000X0.825000X0*%
%ADD26RoundRect,0.250000X0.650000X1.550000X-0.650000X1.550000X-0.650000X-1.550000X0.650000X-1.550000X0*%
%ADD27O,1.800000X3.600000*%
%ADD28RoundRect,0.250000X-0.650000X-1.550000X0.650000X-1.550000X0.650000X1.550000X-0.650000X1.550000X0*%
%ADD29C,5.000000*%
%ADD30R,1.000000X3.150000*%
%ADD31RoundRect,0.250000X0.475000X-0.250000X0.475000X0.250000X-0.475000X0.250000X-0.475000X-0.250000X0*%
%ADD32RoundRect,0.250000X-0.475000X0.250000X-0.475000X-0.250000X0.475000X-0.250000X0.475000X0.250000X0*%
%ADD33RoundRect,0.250000X0.325000X1.100000X-0.325000X1.100000X-0.325000X-1.100000X0.325000X-1.100000X0*%
%ADD34RoundRect,0.375000X0.625000X0.375000X-0.625000X0.375000X-0.625000X-0.375000X0.625000X-0.375000X0*%
%ADD35RoundRect,0.500000X0.500000X1.400000X-0.500000X1.400000X-0.500000X-1.400000X0.500000X-1.400000X0*%
%ADD36RoundRect,0.250000X0.600000X-0.600000X0.600000X0.600000X-0.600000X0.600000X-0.600000X-0.600000X0*%
G04 APERTURE END LIST*
D10*
%TO.C,J12*%
X159135702Y-39480000D03*
D11*
X159135702Y-36940000D03*
X156595702Y-39480000D03*
X156595702Y-36940000D03*
X154055702Y-39480000D03*
X154055702Y-36940000D03*
X151515702Y-39480000D03*
X151515702Y-36940000D03*
X148975702Y-39480000D03*
X148975702Y-36940000D03*
X146435702Y-39480000D03*
X146435702Y-36940000D03*
X143895702Y-39480000D03*
X143895702Y-36940000D03*
%TD*%
D10*
%TO.C,J11*%
X159122639Y-32330517D03*
D11*
X159122639Y-29790517D03*
X156582639Y-32330517D03*
X156582639Y-29790517D03*
X154042639Y-32330517D03*
X154042639Y-29790517D03*
X151502639Y-32330517D03*
X151502639Y-29790517D03*
X148962639Y-32330517D03*
X148962639Y-29790517D03*
X146422639Y-32330517D03*
X146422639Y-29790517D03*
X143882639Y-32330517D03*
X143882639Y-29790517D03*
%TD*%
D12*
%TO.C,R82*%
X101939760Y-141042890D03*
X99014760Y-141042890D03*
%TD*%
%TO.C,R75*%
X86810077Y-138742890D03*
X83885077Y-138742890D03*
%TD*%
%TO.C,R71*%
X68995394Y-138742890D03*
X71920394Y-138742890D03*
%TD*%
%TO.C,R70*%
X68995394Y-141042890D03*
X71920394Y-141042890D03*
%TD*%
%TO.C,R91*%
X117127086Y-138742890D03*
X114202086Y-138742890D03*
%TD*%
D13*
%TO.C,R76*%
X83885077Y-143342890D03*
X86810077Y-143342890D03*
%TD*%
%TO.C,R92*%
X114202086Y-143342890D03*
X117127086Y-143342890D03*
%TD*%
%TO.C,R72*%
X71920394Y-143342890D03*
X68995394Y-143342890D03*
%TD*%
%TO.C,R84*%
X99014760Y-143342890D03*
X101939760Y-143342890D03*
%TD*%
D12*
%TO.C,R83*%
X101939760Y-138742890D03*
X99014760Y-138742890D03*
%TD*%
%TO.C,R74*%
X86810077Y-141042890D03*
X83885077Y-141042890D03*
%TD*%
%TO.C,R90*%
X117127086Y-141042890D03*
X114202086Y-141042890D03*
%TD*%
D14*
%TO.C,C36*%
X63904896Y-141852890D03*
X65804896Y-141852890D03*
%TD*%
D15*
%TO.C,U33*%
X63367396Y-140122890D03*
X63367396Y-139172890D03*
X63367396Y-138222890D03*
X65642396Y-138222890D03*
X65642396Y-139172890D03*
X65642396Y-140122890D03*
%TD*%
D14*
%TO.C,C37*%
X63904896Y-143872890D03*
X65804896Y-143872890D03*
%TD*%
D16*
%TO.C,Q10*%
X66004431Y-147372425D03*
D17*
X68284431Y-153672425D03*
D16*
X68284431Y-147372425D03*
X70564431Y-147372425D03*
%TD*%
D12*
%TO.C,R69*%
X60097500Y-135530000D03*
X63022500Y-135530000D03*
%TD*%
D18*
%TO.C,U1*%
X110704896Y-129500000D03*
X113244896Y-129500000D03*
X115784896Y-129500000D03*
X118324896Y-129500000D03*
X120864896Y-129500000D03*
X123404896Y-129500000D03*
X125944896Y-129500000D03*
X128484896Y-129500000D03*
X108164896Y-124380000D03*
X110704896Y-124380000D03*
X113244896Y-124380000D03*
X115784896Y-124380000D03*
X120864896Y-124380000D03*
X123404896Y-124380000D03*
X125944896Y-124380000D03*
X128464896Y-124380000D03*
X92924896Y-124380000D03*
X92924896Y-129500000D03*
X95464896Y-124380000D03*
X95464896Y-129500000D03*
X98004896Y-124380000D03*
X98004896Y-129500000D03*
X100544896Y-124380000D03*
X100544896Y-129500000D03*
X100544896Y-129500000D03*
X103084896Y-124380000D03*
X103084896Y-129500000D03*
X105624896Y-124380000D03*
X105624896Y-129500000D03*
X108164896Y-129500000D03*
X118304896Y-124380000D03*
D10*
X108154896Y-102830000D03*
X108154896Y-105370000D03*
D11*
X110694896Y-102830000D03*
X110694896Y-105370000D03*
X113234896Y-102830000D03*
X113234896Y-105370000D03*
X115774896Y-102830000D03*
X115774896Y-105370000D03*
X118314896Y-102830000D03*
X118314896Y-105370000D03*
X120854896Y-102830000D03*
X120854896Y-105370000D03*
X123394896Y-102830000D03*
X123394896Y-105370000D03*
D10*
X125934896Y-102830000D03*
X125934896Y-105370000D03*
%TD*%
D19*
%TO.C,R14*%
X39462396Y-118311250D03*
X37637396Y-118311250D03*
%TD*%
D20*
%TO.C,R6*%
X50956325Y-102332500D03*
X50956325Y-99407500D03*
%TD*%
D21*
%TO.C,D24*%
X67356325Y-105910000D03*
X65256325Y-105910000D03*
%TD*%
D14*
%TO.C,C46*%
X111011588Y-141852890D03*
X109111588Y-141852890D03*
%TD*%
D20*
%TO.C,R16*%
X33002039Y-107129369D03*
X33002039Y-104204369D03*
%TD*%
D13*
%TO.C,R62*%
X42346194Y-136320465D03*
X45271194Y-136320465D03*
%TD*%
D10*
%TO.C,J8*%
X144479468Y-120790000D03*
D11*
X144479468Y-118250000D03*
X147019468Y-120790000D03*
X147019468Y-118250000D03*
X149559468Y-120790000D03*
X149559468Y-118250000D03*
X152099468Y-120790000D03*
X152099468Y-118250000D03*
X154639468Y-120790000D03*
X154639468Y-118250000D03*
X157179468Y-120790000D03*
X157179468Y-118250000D03*
X159719468Y-120790000D03*
X159719468Y-118250000D03*
%TD*%
D21*
%TO.C,D26*%
X63207754Y-105910000D03*
X61107754Y-105910000D03*
%TD*%
D22*
%TO.C,L1*%
X153939896Y-145967500D03*
X153939896Y-151467500D03*
%TD*%
D23*
%TO.C,C25*%
X75568365Y-103545000D03*
X75568365Y-100595000D03*
%TD*%
D20*
%TO.C,R13*%
X39007753Y-107129369D03*
X39007753Y-104204369D03*
%TD*%
D24*
%TO.C,U22*%
X75956325Y-108210000D03*
X73416325Y-108210000D03*
X73416325Y-114510000D03*
X75956325Y-114510000D03*
%TD*%
D25*
%TO.C,U10*%
X40154896Y-111136250D03*
X38884896Y-111136250D03*
X37614896Y-111136250D03*
X36344896Y-111136250D03*
X36344896Y-116086250D03*
X37614896Y-116086250D03*
X38884896Y-116086250D03*
X40154896Y-116086250D03*
%TD*%
D12*
%TO.C,R1*%
X26147396Y-133780000D03*
X23222396Y-133780000D03*
%TD*%
D23*
%TO.C,C27*%
X71593875Y-103545000D03*
X71593875Y-100595000D03*
%TD*%
D20*
%TO.C,R15*%
X32986325Y-102332500D03*
X32986325Y-99407500D03*
%TD*%
%TO.C,R53*%
X26996325Y-107032500D03*
X26996325Y-104107500D03*
%TD*%
D26*
%TO.C,J10*%
X81944896Y-94300000D03*
D27*
X78444896Y-94300000D03*
X74944896Y-94300000D03*
X71444896Y-94300000D03*
X67944896Y-94300000D03*
X64444896Y-94300000D03*
X60944896Y-94300000D03*
X57444896Y-94300000D03*
X53944896Y-94300000D03*
X50444896Y-94300000D03*
X46944896Y-94300000D03*
X43444896Y-94300000D03*
X39944896Y-94300000D03*
X36444896Y-94300000D03*
X32944896Y-94300000D03*
X29444896Y-94300000D03*
%TD*%
D25*
%TO.C,U8*%
X46182039Y-111136250D03*
X44912039Y-111136250D03*
X43642039Y-111136250D03*
X42372039Y-111136250D03*
X42372039Y-116086250D03*
X43642039Y-116086250D03*
X44912039Y-116086250D03*
X46182039Y-116086250D03*
%TD*%
D15*
%TO.C,U34*%
X80532079Y-140122890D03*
X80532079Y-139172890D03*
X80532079Y-138222890D03*
X78257079Y-138222890D03*
X78257079Y-139172890D03*
X78257079Y-140122890D03*
%TD*%
D19*
%TO.C,R11*%
X45489539Y-118311250D03*
X43664539Y-118311250D03*
%TD*%
D28*
%TO.C,J5*%
X87440751Y-161021599D03*
D27*
X90940751Y-161021599D03*
X94440751Y-161021599D03*
X97940751Y-161021599D03*
X101440751Y-161021599D03*
X104940751Y-161021599D03*
X108440751Y-161021599D03*
X111940751Y-161021599D03*
%TD*%
D20*
%TO.C,R4*%
X57024896Y-107052500D03*
X57024896Y-104127500D03*
%TD*%
D19*
%TO.C,R17*%
X33435254Y-118311250D03*
X31610254Y-118311250D03*
%TD*%
D13*
%TO.C,R2*%
X23252861Y-136320465D03*
X26177861Y-136320465D03*
%TD*%
D20*
%TO.C,R7*%
X51019182Y-107129369D03*
X51019182Y-104204369D03*
%TD*%
D29*
%TO.C,MOD1*%
X18060000Y-61550000D03*
X79610000Y-61540000D03*
X18060000Y-25990000D03*
X79610000Y-25980000D03*
D30*
X22120000Y-63900000D03*
X22120000Y-58850000D03*
X24660000Y-63900000D03*
X24660000Y-58850000D03*
X27200000Y-63900000D03*
X27200000Y-58850000D03*
X29740000Y-63900000D03*
X29740000Y-58850000D03*
X32280000Y-63900000D03*
X32280000Y-58850000D03*
X34820000Y-63900000D03*
X34820000Y-58850000D03*
X37360000Y-63900000D03*
X37360000Y-58850000D03*
X39900000Y-63900000D03*
X39900000Y-58850000D03*
X42440000Y-63900000D03*
X42440000Y-58850000D03*
X44980000Y-63900000D03*
X44980000Y-58850000D03*
X47520000Y-63900000D03*
X47520000Y-58850000D03*
X50060000Y-63900000D03*
X50060000Y-58850000D03*
X52600000Y-63900000D03*
X52600000Y-58850000D03*
X55140000Y-63900000D03*
X55140000Y-58850000D03*
X57680000Y-63900000D03*
X57680000Y-58850000D03*
X60220000Y-63900000D03*
X60220000Y-58850000D03*
X62760000Y-63900000D03*
X62760000Y-58850000D03*
X65300000Y-63900000D03*
X65300000Y-58850000D03*
X67840000Y-63900000D03*
X67840000Y-58850000D03*
X70380000Y-63900000D03*
X70380000Y-58850000D03*
X72920000Y-63900000D03*
X72920000Y-58850000D03*
X75460000Y-63900000D03*
X75460000Y-58850000D03*
X22120000Y-28880000D03*
X22120000Y-23830000D03*
X24660000Y-28880000D03*
X24660000Y-23830000D03*
X27200000Y-28880000D03*
X27200000Y-23830000D03*
X29740000Y-28880000D03*
X29740000Y-23830000D03*
X32280000Y-28880000D03*
X32280000Y-23830000D03*
X34820000Y-28880000D03*
X34820000Y-23830000D03*
X37360000Y-28880000D03*
X37360000Y-23830000D03*
X39900000Y-28880000D03*
X39900000Y-23830000D03*
X42440000Y-28880000D03*
X42440000Y-23830000D03*
X44980000Y-28880000D03*
X44980000Y-23830000D03*
X47520000Y-28880000D03*
X47520000Y-23830000D03*
X50060000Y-28880000D03*
X50060000Y-23830000D03*
X52600000Y-28880000D03*
X52600000Y-23830000D03*
X55140000Y-28880000D03*
X55140000Y-23830000D03*
X57680000Y-28880000D03*
X57680000Y-23830000D03*
X60220000Y-28880000D03*
X60220000Y-23830000D03*
X62760000Y-28880000D03*
X62760000Y-23830000D03*
X65300000Y-28880000D03*
X65300000Y-23830000D03*
X67840000Y-28880000D03*
X67840000Y-23830000D03*
X70380000Y-28880000D03*
X70380000Y-23830000D03*
X72920000Y-28880000D03*
X72920000Y-23830000D03*
X75460000Y-28880000D03*
X75460000Y-23830000D03*
%TD*%
D16*
%TO.C,Q1*%
X27044896Y-139540000D03*
X24764896Y-139540000D03*
D17*
X24764896Y-145840000D03*
D16*
X22484896Y-139540000D03*
%TD*%
D31*
%TO.C,CIN5*%
X156339896Y-139217500D03*
X156339896Y-137317500D03*
%TD*%
D25*
%TO.C,U3*%
X58236325Y-111136250D03*
X56966325Y-111136250D03*
X55696325Y-111136250D03*
X54426325Y-111136250D03*
X54426325Y-116086250D03*
X55696325Y-116086250D03*
X56966325Y-116086250D03*
X58236325Y-116086250D03*
%TD*%
D31*
%TO.C,CIN4*%
X153339896Y-139217500D03*
X153339896Y-137317500D03*
%TD*%
D28*
%TO.C,J15*%
X146215000Y-160797500D03*
D27*
X149715000Y-160797500D03*
%TD*%
D32*
%TO.C,CCOUT2*%
X156339896Y-133867500D03*
X156339896Y-135767500D03*
%TD*%
D10*
%TO.C,J3*%
X19665000Y-127725000D03*
D11*
X19665000Y-125185000D03*
X22205000Y-127725000D03*
X22205000Y-125185000D03*
X24745000Y-127725000D03*
X24745000Y-125185000D03*
X27285000Y-127725000D03*
X27285000Y-125185000D03*
X29825000Y-127725000D03*
X29825000Y-125185000D03*
X32365000Y-127725000D03*
X32365000Y-125185000D03*
X34905000Y-127725000D03*
X34905000Y-125185000D03*
X37445000Y-127725000D03*
X37445000Y-125185000D03*
X39985000Y-127725000D03*
X39985000Y-125185000D03*
X42525000Y-127725000D03*
X42525000Y-125185000D03*
X45065000Y-127725000D03*
X45065000Y-125185000D03*
X47605000Y-127725000D03*
X47605000Y-125185000D03*
X50145000Y-127725000D03*
X50145000Y-125185000D03*
X52685000Y-127725000D03*
X52685000Y-125185000D03*
X55225000Y-127725000D03*
X55225000Y-125185000D03*
X57765000Y-127725000D03*
X57765000Y-125185000D03*
X60305000Y-127725000D03*
X60305000Y-125185000D03*
X62845000Y-127725000D03*
X62845000Y-125185000D03*
X65385000Y-127725000D03*
X65385000Y-125185000D03*
X67925000Y-127725000D03*
X67925000Y-125185000D03*
X70465000Y-127725000D03*
X70465000Y-125185000D03*
X73005000Y-127725000D03*
X73005000Y-125185000D03*
X75545000Y-127725000D03*
X75545000Y-125185000D03*
X78085000Y-127725000D03*
X78085000Y-125185000D03*
X80625000Y-127725000D03*
X80625000Y-125185000D03*
X83165000Y-127725000D03*
X83165000Y-125185000D03*
X85705000Y-127725000D03*
X85705000Y-125185000D03*
X88245000Y-127725000D03*
X88245000Y-125185000D03*
%TD*%
D21*
%TO.C,D18*%
X79756325Y-105910000D03*
X77656325Y-105910000D03*
%TD*%
D26*
%TO.C,J2*%
X140454896Y-94300000D03*
D27*
X136954896Y-94300000D03*
X133454896Y-94300000D03*
X129954896Y-94300000D03*
X126454896Y-94300000D03*
X122954896Y-94300000D03*
X119454896Y-94300000D03*
X115954896Y-94300000D03*
X112454896Y-94300000D03*
X108954896Y-94300000D03*
X105454896Y-94300000D03*
X101954896Y-94300000D03*
X98454896Y-94300000D03*
X94954896Y-94300000D03*
X91454896Y-94300000D03*
X87954896Y-94300000D03*
%TD*%
D32*
%TO.C,CCOUT1*%
X153339896Y-133867500D03*
X153339896Y-135767500D03*
%TD*%
D23*
%TO.C,C29*%
X67619386Y-103545000D03*
X67619386Y-100595000D03*
%TD*%
D19*
%TO.C,R5*%
X57543825Y-118311250D03*
X55718825Y-118311250D03*
%TD*%
D12*
%TO.C,R65*%
X54667396Y-133780000D03*
X51742396Y-133780000D03*
%TD*%
D23*
%TO.C,C19*%
X87591835Y-103545000D03*
X87591835Y-100595000D03*
%TD*%
D12*
%TO.C,R81*%
X92620095Y-135952890D03*
X89695095Y-135952890D03*
%TD*%
D13*
%TO.C,R58*%
X32799528Y-136320465D03*
X35724528Y-136320465D03*
%TD*%
D20*
%TO.C,R10*%
X45013468Y-107129369D03*
X45013468Y-104204369D03*
%TD*%
D23*
%TO.C,C31*%
X63596325Y-103545000D03*
X63596325Y-100595000D03*
%TD*%
D33*
%TO.C,COUT1*%
X148964896Y-147117500D03*
X146014896Y-147117500D03*
%TD*%
D16*
%TO.C,Q13*%
X99463797Y-147272425D03*
X97183797Y-147272425D03*
D17*
X97183797Y-153572425D03*
D16*
X94903797Y-147272425D03*
%TD*%
D21*
%TO.C,D20*%
X75556325Y-105910000D03*
X73456325Y-105910000D03*
%TD*%
D23*
%TO.C,C21*%
X83617346Y-103545000D03*
X83617346Y-100595000D03*
%TD*%
D24*
%TO.C,U26*%
X67756325Y-108210000D03*
X65216325Y-108210000D03*
X65216325Y-114510000D03*
X67756325Y-114510000D03*
%TD*%
D20*
%TO.C,R9*%
X44966325Y-102332500D03*
X44966325Y-99407500D03*
%TD*%
D14*
%TO.C,C42*%
X95824262Y-141852890D03*
X93924262Y-141852890D03*
%TD*%
D24*
%TO.C,U16*%
X88356325Y-108210000D03*
X85816325Y-108210000D03*
X85816325Y-114510000D03*
X88356325Y-114510000D03*
%TD*%
D10*
%TO.C,J9*%
X135550000Y-114785000D03*
D11*
X138090000Y-114785000D03*
X135550000Y-117325000D03*
X138090000Y-117325000D03*
X135550000Y-119865000D03*
X138090000Y-119865000D03*
X135550000Y-122405000D03*
X138090000Y-122405000D03*
X135550000Y-124945000D03*
X138090000Y-124945000D03*
X135550000Y-127485000D03*
X138090000Y-127485000D03*
X135550000Y-130025000D03*
X138090000Y-130025000D03*
%TD*%
D25*
%TO.C,U32*%
X28100611Y-111136250D03*
X26830611Y-111136250D03*
X25560611Y-111136250D03*
X24290611Y-111136250D03*
X24290611Y-116086250D03*
X25560611Y-116086250D03*
X26830611Y-116086250D03*
X28100611Y-116086250D03*
%TD*%
D10*
%TO.C,J6*%
X121160000Y-139585000D03*
D11*
X121160000Y-142125000D03*
X123700000Y-139585000D03*
X123700000Y-142125000D03*
X126240000Y-139585000D03*
X126240000Y-142125000D03*
X128780000Y-139585000D03*
X128780000Y-142125000D03*
X131320000Y-139585000D03*
X131320000Y-142125000D03*
X133860000Y-139585000D03*
X133860000Y-142125000D03*
X136400000Y-139585000D03*
X136400000Y-142125000D03*
%TD*%
D25*
%TO.C,U5*%
X52209182Y-111136250D03*
X50939182Y-111136250D03*
X49669182Y-111136250D03*
X48399182Y-111136250D03*
X48399182Y-116086250D03*
X49669182Y-116086250D03*
X50939182Y-116086250D03*
X52209182Y-116086250D03*
%TD*%
D20*
%TO.C,R52*%
X26996325Y-102332500D03*
X26996325Y-99407500D03*
%TD*%
D10*
%TO.C,J7*%
X144479468Y-113650000D03*
D11*
X144479468Y-111110000D03*
X147019468Y-113650000D03*
X147019468Y-111110000D03*
X149559468Y-113650000D03*
X149559468Y-111110000D03*
X152099468Y-113650000D03*
X152099468Y-111110000D03*
X154639468Y-113650000D03*
X154639468Y-111110000D03*
X157179468Y-113650000D03*
X157179468Y-111110000D03*
X159719468Y-113650000D03*
X159719468Y-111110000D03*
%TD*%
D24*
%TO.C,U14*%
X92556325Y-108210000D03*
X90016325Y-108210000D03*
X90016325Y-114510000D03*
X92556325Y-114510000D03*
%TD*%
%TO.C,U28*%
X63607754Y-108210000D03*
X61067754Y-108210000D03*
X61067754Y-114510000D03*
X63607754Y-114510000D03*
%TD*%
D21*
%TO.C,D12*%
X92156325Y-105910000D03*
X90056325Y-105910000D03*
%TD*%
D25*
%TO.C,U12*%
X34127754Y-111136250D03*
X32857754Y-111136250D03*
X31587754Y-111136250D03*
X30317754Y-111136250D03*
X30317754Y-116086250D03*
X31587754Y-116086250D03*
X32857754Y-116086250D03*
X34127754Y-116086250D03*
%TD*%
D20*
%TO.C,R3*%
X56996325Y-102332500D03*
X56996325Y-99407500D03*
%TD*%
D16*
%TO.C,Q15*%
X113711123Y-147272425D03*
X111431123Y-147272425D03*
D17*
X111431123Y-153572425D03*
D16*
X109151123Y-147272425D03*
%TD*%
D19*
%TO.C,R54*%
X27408111Y-118311250D03*
X25583111Y-118311250D03*
%TD*%
D12*
%TO.C,R89*%
X108074088Y-135952890D03*
X105149088Y-135952890D03*
%TD*%
D20*
%TO.C,R12*%
X38976325Y-102332500D03*
X38976325Y-99407500D03*
%TD*%
D21*
%TO.C,D4*%
X51104182Y-108911250D03*
X49004182Y-108911250D03*
%TD*%
D24*
%TO.C,U18*%
X84256325Y-108210000D03*
X81716325Y-108210000D03*
X81716325Y-114510000D03*
X84256325Y-114510000D03*
%TD*%
D12*
%TO.C,R61*%
X45160729Y-133780000D03*
X42235729Y-133780000D03*
%TD*%
D21*
%TO.C,D22*%
X71456325Y-105910000D03*
X69356325Y-105910000D03*
%TD*%
%TO.C,D14*%
X87956325Y-105910000D03*
X85856325Y-105910000D03*
%TD*%
D16*
%TO.C,Q6*%
X46204896Y-139540000D03*
X43924896Y-139540000D03*
D17*
X43924896Y-145840000D03*
D16*
X41644896Y-139540000D03*
%TD*%
%TO.C,Q4*%
X36624896Y-139540000D03*
X34344896Y-139540000D03*
D17*
X34344896Y-145840000D03*
D16*
X32064896Y-139540000D03*
%TD*%
%TO.C,Q11*%
X85134114Y-147472425D03*
X82854114Y-147472425D03*
D17*
X82854114Y-153772425D03*
D16*
X80574114Y-147472425D03*
%TD*%
D12*
%TO.C,R57*%
X35654063Y-133780000D03*
X32729063Y-133780000D03*
%TD*%
D15*
%TO.C,U36*%
X95661762Y-140122890D03*
X95661762Y-139172890D03*
X95661762Y-138222890D03*
X93386762Y-138222890D03*
X93386762Y-139172890D03*
X93386762Y-140122890D03*
%TD*%
D16*
%TO.C,Q8*%
X55784896Y-139540000D03*
X53504896Y-139540000D03*
D17*
X53504896Y-145840000D03*
D16*
X51224896Y-139540000D03*
%TD*%
D15*
%TO.C,U38*%
X110849088Y-140122890D03*
X110849088Y-139172890D03*
X110849088Y-138222890D03*
X108574088Y-138222890D03*
X108574088Y-139172890D03*
X108574088Y-140122890D03*
%TD*%
D21*
%TO.C,D16*%
X83856325Y-105910000D03*
X81756325Y-105910000D03*
%TD*%
D13*
%TO.C,R66*%
X51892861Y-136320465D03*
X54817861Y-136320465D03*
%TD*%
D19*
%TO.C,R8*%
X51516682Y-118311250D03*
X49691682Y-118311250D03*
%TD*%
D21*
%TO.C,D30*%
X26995611Y-108911250D03*
X24895611Y-108911250D03*
%TD*%
D14*
%TO.C,C47*%
X111011588Y-143872890D03*
X109111588Y-143872890D03*
%TD*%
D33*
%TO.C,COUT2*%
X148989896Y-143417500D03*
X146039896Y-143417500D03*
%TD*%
D34*
%TO.C,U30*%
X150089896Y-138567500D03*
X150089896Y-136267500D03*
D35*
X143789896Y-136267500D03*
D34*
X150089896Y-133967500D03*
%TD*%
D21*
%TO.C,D8*%
X39049896Y-108911250D03*
X36949896Y-108911250D03*
%TD*%
%TO.C,D6*%
X45077039Y-108911250D03*
X42977039Y-108911250D03*
%TD*%
D24*
%TO.C,U24*%
X71856325Y-108210000D03*
X69316325Y-108210000D03*
X69316325Y-114510000D03*
X71856325Y-114510000D03*
%TD*%
D21*
%TO.C,D2*%
X57131325Y-108911250D03*
X55031325Y-108911250D03*
%TD*%
D23*
%TO.C,C23*%
X79642856Y-103545000D03*
X79642856Y-100595000D03*
%TD*%
D14*
%TO.C,C43*%
X95824262Y-143872890D03*
X93924262Y-143872890D03*
%TD*%
D26*
%TO.C,J1*%
X149959896Y-94262500D03*
D27*
X146459896Y-94262500D03*
%TD*%
D21*
%TO.C,D10*%
X33022754Y-108911250D03*
X30922754Y-108911250D03*
%TD*%
D14*
%TO.C,C39*%
X80694579Y-143872890D03*
X78794579Y-143872890D03*
%TD*%
D12*
%TO.C,R73*%
X77823746Y-135952890D03*
X74898746Y-135952890D03*
%TD*%
D24*
%TO.C,U20*%
X80156325Y-108210000D03*
X77616325Y-108210000D03*
X77616325Y-114510000D03*
X80156325Y-114510000D03*
%TD*%
D23*
%TO.C,C17*%
X91666325Y-103445000D03*
X91666325Y-100495000D03*
%TD*%
D28*
%TO.C,J4*%
X28880751Y-161021599D03*
D27*
X32380751Y-161021599D03*
X35880751Y-161021599D03*
X39380751Y-161021599D03*
X42880751Y-161021599D03*
X46380751Y-161021599D03*
X49880751Y-161021599D03*
X53380751Y-161021599D03*
X56880751Y-161021599D03*
X60380751Y-161021599D03*
X63880751Y-161021599D03*
X67380751Y-161021599D03*
X70880751Y-161021599D03*
X74380751Y-161021599D03*
X77880751Y-161021599D03*
X81380751Y-161021599D03*
%TD*%
D33*
%TO.C,COUT3*%
X148964896Y-150717500D03*
X146014896Y-150717500D03*
%TD*%
D14*
%TO.C,C38*%
X80694579Y-141852890D03*
X78794579Y-141852890D03*
%TD*%
D10*
%TO.C,J14*%
X135400000Y-33050000D03*
D11*
X137940000Y-33050000D03*
X135400000Y-35590000D03*
X137940000Y-35590000D03*
X135400000Y-38130000D03*
X137940000Y-38130000D03*
X135400000Y-40670000D03*
X137940000Y-40670000D03*
X135400000Y-43210000D03*
X137940000Y-43210000D03*
X135400000Y-45750000D03*
X137940000Y-45750000D03*
X135400000Y-48290000D03*
X137940000Y-48290000D03*
%TD*%
D10*
%TO.C,J13*%
X19565000Y-45775000D03*
D11*
X19565000Y-43235000D03*
X22105000Y-45775000D03*
X22105000Y-43235000D03*
X24645000Y-45775000D03*
X24645000Y-43235000D03*
X27185000Y-45775000D03*
X27185000Y-43235000D03*
X29725000Y-45775000D03*
X29725000Y-43235000D03*
X32265000Y-45775000D03*
X32265000Y-43235000D03*
X34805000Y-45775000D03*
X34805000Y-43235000D03*
X37345000Y-45775000D03*
X37345000Y-43235000D03*
X39885000Y-45775000D03*
X39885000Y-43235000D03*
X42425000Y-45775000D03*
X42425000Y-43235000D03*
X44965000Y-45775000D03*
X44965000Y-43235000D03*
X47505000Y-45775000D03*
X47505000Y-43235000D03*
X50045000Y-45775000D03*
X50045000Y-43235000D03*
X52585000Y-45775000D03*
X52585000Y-43235000D03*
X55125000Y-45775000D03*
X55125000Y-43235000D03*
X57665000Y-45775000D03*
X57665000Y-43235000D03*
X60205000Y-45775000D03*
X60205000Y-43235000D03*
X62745000Y-45775000D03*
X62745000Y-43235000D03*
X65285000Y-45775000D03*
X65285000Y-43235000D03*
X67825000Y-45775000D03*
X67825000Y-43235000D03*
X70365000Y-45775000D03*
X70365000Y-43235000D03*
X72905000Y-45775000D03*
X72905000Y-43235000D03*
X75445000Y-45775000D03*
X75445000Y-43235000D03*
X77985000Y-45775000D03*
X77985000Y-43235000D03*
X80525000Y-45775000D03*
X80525000Y-43235000D03*
X83065000Y-45775000D03*
X83065000Y-43235000D03*
X85605000Y-45775000D03*
X85605000Y-43235000D03*
X88145000Y-45775000D03*
X88145000Y-43235000D03*
%TD*%
D36*
%TO.C,U6*%
X137143135Y-27812313D03*
D11*
X134603135Y-27812313D03*
X132063135Y-27812313D03*
X129523135Y-27812313D03*
X126983135Y-27812313D03*
X124443135Y-27812313D03*
X121903135Y-27812313D03*
D28*
X117033135Y-69832313D03*
D27*
X120843135Y-69832313D03*
X124653135Y-69832313D03*
X128463135Y-69832313D03*
X132273135Y-69832313D03*
X136083135Y-69832313D03*
X139893135Y-69832313D03*
X143703135Y-69832313D03*
X147513135Y-69842313D03*
X151323135Y-69842313D03*
%TD*%
M02*
